<?xml version="1.0" encoding="UTF-8" standalone="no"?>
<svg
   xmlns:dc="http://purl.org/dc/elements/1.1/"
   xmlns:cc="http://creativecommons.org/ns#"
   xmlns:rdf="http://www.w3.org/1999/02/22-rdf-syntax-ns#"
   xmlns:svg="http://www.w3.org/2000/svg"
   xmlns="http://www.w3.org/2000/svg"
   id="svg42"
   version="1.1"
   height="1024"
   width="1024">
  <metadata
     id="metadata48">
    <rdf:RDF>
      <cc:Work
         rdf:about="">
        <dc:format>image/svg+xml</dc:format>
        <dc:type
           rdf:resource="http://purl.org/dc/dcmitype/StillImage" />
      </cc:Work>
    </rdf:RDF>
  </metadata>
  <defs
     id="defs46" />
  <g
     id="g5">
    <title
       id="title2">background</title>
    <path
       id="canvas_background"
       d="M -1,-1 H 581 V 401 H -1 Z"
       style="fill:none" />
  </g>
  <g
     id="g40">
    <title
       id="title7">Layer 1</title>
    <path
       id="svg_1"
       d="M 0,0 H 1024 V 1024 H 0 Z"
       style="fill:#f4f3ef"
       transform="translate(6,17)" />
    <g
       id="svg_2"
       transform="translate(-15,-4)"
       stroke="null">
      <g
         id="logo-group"
         transform="matrix(1.0598,0,0,1.0598,-30.793999,-27.853001)"
         stroke="null">
        <path
           style="fill:#f68136;stroke-width:0;stroke-miterlimit:2"
           id="path20985"
           d="m 573.07659,541.8875 q 2.4576,0 3.6864,1.4016 1.248,1.4016 1.248,3.936 0,0.4992 -0.0192,0.7488 h -7.584 q 0.2496,1.0944 1.0176,1.728 0.7872,0.6144 1.92,0.6144 0.7872,0 1.4976,-0.288 0.7296,-0.3072 1.2672,-0.864 l 1.344,1.4016 q -0.768,0.8448 -1.8816,1.3056 -1.0944,0.4608 -2.4384,0.4608 -1.5744,0 -2.784,-0.6528 -1.1904,-0.6528 -1.8432,-1.824 -0.6528,-1.1904 -0.6528,-2.7264 0,-1.536 0.6528,-2.7264 0.672,-1.1904 1.8624,-1.8432 1.1904,-0.672 2.7072,-0.672 z m 2.6496,4.416 q -0.0384,-1.1328 -0.7488,-1.8048 -0.7104,-0.672 -1.8816,-0.672 -1.0944,0 -1.8432,0.672 -0.7296,0.6528 -0.9024,1.8048 z"
           stroke-miterlimit="2"
           stroke="null" />
        <path
           style="fill:#f68136;stroke-width:0;stroke-miterlimit:2"
           id="path20987"
           d="m 584.32659,540.0275 q -0.576,0 -0.96,0.3264 -0.3648,0.3264 -0.3648,0.9792 v 1.056 h 2.5728 v 1.824 h -2.5728 v 8.0256 h -2.496 v -8.0256 h -1.344 v -1.824 h 1.344 v -0.9792 q 0,-1.1328 0.4992,-1.92 0.4992,-0.8064 1.3248,-1.2096 0.8448,-0.4032 1.824,-0.4032 0.96,0 1.8816,0.4416 l -0.4416,2.016 q -0.768,-0.3072 -1.2672,-0.3072 z"
           stroke-miterlimit="2"
           stroke="null" />
        <path
           style="fill:#f68136;stroke-width:0;stroke-miterlimit:2"
           id="path20989"
           d="m 591.45659,540.0275 q -0.576,0 -0.96,0.3264 -0.3648,0.3264 -0.3648,0.9792 v 1.056 h 2.5728 v 1.824 h -2.5728 v 8.0256 h -2.496 v -8.0256 h -1.344 v -1.824 h 1.344 v -0.9792 q 0,-1.1328 0.4992,-1.92 0.4992,-0.8064 1.3248,-1.2096 0.8448,-0.4032 1.824,-0.4032 0.96,0 1.8816,0.4416 l -0.4416,2.016 q -0.768,-0.3072 -1.2672,-0.3072 z"
           stroke-miterlimit="2"
           stroke="null" />
        <path
           style="fill:#f68136;stroke-width:0;stroke-miterlimit:2"
           id="path20991"
           d="m 598.48659,541.8875 q 1.5936,0 2.8032,0.6528 1.2288,0.6528 1.9008,1.8432 0.6912,1.1712 0.6912,2.7072 0,1.5552 -0.6912,2.7456 -0.672,1.1904 -1.9008,1.8432 -1.2096,0.6528 -2.8032,0.6528 -1.6128,0 -2.8416,-0.6528 -1.2288,-0.6528 -1.92,-1.8432 -0.672,-1.1904 -0.672,-2.7456 0,-1.536 0.672,-2.7072 0.6912,-1.1904 1.92,-1.8432 1.2288,-0.6528 2.8416,-0.6528 z m 0,2.1312 q -1.3056,0 -2.112,0.864 -0.8064,0.864 -0.8064,2.2464 0,1.3824 0.8064,2.2464 0.8064,0.864 2.112,0.864 1.2672,0 2.0736,-0.864 0.8064,-0.864 0.8064,-2.2464 0,-1.3824 -0.8064,-2.2464 -0.8064,-0.864 -2.0736,-0.864 z"
           stroke-miterlimit="2"
           stroke="null" />
        <path
           style="fill:#f68136;stroke-width:0;stroke-miterlimit:2"
           id="path20993"
           d="m 608.56659,543.9475 q 0.5184,-0.9984 1.4016,-1.5168 0.9024,-0.5376 2.0928,-0.5568 v 2.4192 q -1.5936,-0.096 -2.5536,0.7488 -0.9408,0.8256 -0.9408,2.2464 v 4.9536 h -2.496 v -10.272 h 2.496 z"
           stroke-miterlimit="2"
           stroke="null" />
        <path
           style="fill:#f68136;stroke-width:0;stroke-miterlimit:2"
           id="path20995"
           d="m 619.80659,551.6075 q -1.2288,0.7488 -2.5728,0.7488 -1.3248,0 -2.1696,-0.768 -0.8448,-0.7872 -0.8448,-2.304 v -5.0688 h -1.44 l -0.0192,-1.824 h 1.4592 v -2.8224 h 2.4768 v 2.8224 h 2.9376 v 1.824 h -2.9376 v 4.6272 q 0,0.7104 0.2688,1.0176 0.2688,0.288 0.8064,0.288 0.576,0 1.4592,-0.4224 z"
           stroke-miterlimit="2"
           stroke="null" />
        <path
           style="fill:#f68136;stroke-width:0;stroke-miterlimit:2"
           id="path20997"
           d="m 621.84659,537.9975 h 2.496 v 14.246 h -2.496 z"
           stroke-miterlimit="2"
           stroke="null" />
        <path
           style="fill:#f68136;stroke-width:0;stroke-miterlimit:2"
           id="path20999"
           d="m 631.84659,541.8875 q 2.4576,0 3.6864,1.4016 1.248,1.4016 1.248,3.936 0,0.4992 -0.0192,0.7488 h -7.584 q 0.2496,1.0944 1.0176,1.728 0.7872,0.6144 1.92,0.6144 0.7872,0 1.4976,-0.288 0.7296,-0.3072 1.2672,-0.864 l 1.344,1.4016 q -0.768,0.8448 -1.8816,1.3056 -1.0944,0.4608 -2.4384,0.4608 -1.5744,0 -2.784,-0.6528 -1.1904,-0.6528 -1.8432,-1.824 -0.6528,-1.1904 -0.6528,-2.7264 0,-1.536 0.6528,-2.7264 0.672,-1.1904 1.8624,-1.8432 1.1904,-0.672 2.7072,-0.672 z m 2.6496,4.416 q -0.0384,-1.1328 -0.7488,-1.8048 -0.7104,-0.672 -1.8816,-0.672 -1.0944,0 -1.8432,0.672 -0.7296,0.6528 -0.9024,1.8048 z"
           stroke-miterlimit="2"
           stroke="null" />
        <path
           style="fill:#f68136;stroke-width:0;stroke-miterlimit:2"
           id="path21001"
           d="m 645.00659,544.7575 q -0.7488,-0.4416 -1.5552,-0.6912 -0.7872,-0.2496 -1.4592,-0.2496 -0.6336,0 -1.0176,0.2304 -0.3648,0.2112 -0.3648,0.672 0,0.48 0.4608,0.7488 0.48,0.2496 1.4976,0.5376 1.0752,0.3264 1.7664,0.6528 0.6912,0.3072 1.1904,0.9408 0.5184,0.6144 0.5184,1.632 0,1.4976 -1.152,2.304 -1.152,0.8064 -2.8992,0.8064 -1.1904,0 -2.3232,-0.3648 -1.1328,-0.384 -1.92,-1.0752 l 0.864,-1.7472 q 0.6912,0.5952 1.6512,0.9408 0.96,0.3264 1.824,0.3264 0.6912,0 1.0944,-0.2304 0.4224,-0.2496 0.4224,-0.7296 0,-0.5376 -0.48,-0.8064 -0.48,-0.2688 -1.5552,-0.5952 -1.0368,-0.3072 -1.6896,-0.5952 -0.6528,-0.3072 -1.1328,-0.9024 -0.48,-0.6144 -0.48,-1.5936 0,-1.5168 1.0944,-2.304 1.1136,-0.8064 2.784,-0.8064 1.0176,0 1.9968,0.288 0.9984,0.288 1.7664,0.8064 z"
           stroke-miterlimit="2"
           stroke="null" />
        <path
           style="fill:#f68136;stroke-width:0;stroke-miterlimit:2"
           id="path21003"
           d="m 654.27659,544.7575 q -0.7488,-0.4416 -1.5552,-0.6912 -0.7872,-0.2496 -1.4592,-0.2496 -0.6336,0 -1.0176,0.2304 -0.3648,0.2112 -0.3648,0.672 0,0.48 0.4608,0.7488 0.48,0.2496 1.4976,0.5376 1.0752,0.3264 1.7664,0.6528 0.6912,0.3072 1.1904,0.9408 0.5184,0.6144 0.5184,1.632 0,1.4976 -1.152,2.304 -1.152,0.8064 -2.8992,0.8064 -1.1904,0 -2.3232,-0.3648 -1.1328,-0.384 -1.92,-1.0752 l 0.864,-1.7472 q 0.6912,0.5952 1.6512,0.9408 0.96,0.3264 1.824,0.3264 0.6912,0 1.0944,-0.2304 0.4224,-0.2496 0.4224,-0.7296 0,-0.5376 -0.48,-0.8064 -0.48,-0.2688 -1.5552,-0.5952 -1.0368,-0.3072 -1.6896,-0.5952 -0.6528,-0.3072 -1.1328,-0.9024 -0.48,-0.6144 -0.48,-1.5936 0,-1.5168 1.0944,-2.304 1.1136,-0.8064 2.784,-0.8064 1.0176,0 1.9968,0.288 0.9984,0.288 1.7664,0.8064 z"
           stroke-miterlimit="2"
           stroke="null" />
        <path
           style="fill:#f68136;stroke-width:0;stroke-miterlimit:2"
           id="path21005"
           d="m 660.56659,541.9875 2.5728,-0.0192 2.5152,7.7568 2.4384,-7.7568 h 2.5152 l 2.4768,7.7568 2.4576,-7.7568 h 2.5152 l -3.7248,10.272 h -2.5536 l -2.4576,-7.2384 -2.4384,7.2384 h -2.5536 z"
           stroke-miterlimit="2"
           stroke="null" />
        <path
           style="fill:#f68136;stroke-width:0;stroke-miterlimit:2"
           id="path21007"
           d="m 683.61659,541.8875 q 1.5936,0 2.8032,0.6528 1.2288,0.6528 1.9008,1.8432 0.6912,1.1712 0.6912,2.7072 0,1.5552 -0.6912,2.7456 -0.672,1.1904 -1.9008,1.8432 -1.2096,0.6528 -2.8032,0.6528 -1.6128,0 -2.8416,-0.6528 -1.2288,-0.6528 -1.92,-1.8432 -0.672,-1.1904 -0.672,-2.7456 0,-1.536 0.672,-2.7072 0.6912,-1.1904 1.92,-1.8432 1.2288,-0.6528 2.8416,-0.6528 z m 0,2.1312 q -1.3056,0 -2.112,0.864 -0.8064,0.864 -0.8064,2.2464 0,1.3824 0.8064,2.2464 0.8064,0.864 2.112,0.864 1.2672,0 2.0736,-0.864 0.8064,-0.864 0.8064,-2.2464 0,-1.3824 -0.8064,-2.2464 -0.8064,-0.864 -2.0736,-0.864 z"
           stroke-miterlimit="2"
           stroke="null" />
        <path
           style="fill:#f68136;stroke-width:0;stroke-miterlimit:2"
           id="path21009"
           d="m 693.69659,543.9475 q 0.5184,-0.9984 1.4016,-1.5168 0.9024,-0.5376 2.0928,-0.5568 v 2.4192 q -1.5936,-0.096 -2.5536,0.7488 -0.9408,0.8256 -0.9408,2.2464 v 4.9536 h -2.496 v -10.272 h 2.496 z"
           stroke-miterlimit="2"
           stroke="null" />
        <path
           style="fill:#f68136;stroke-width:0;stroke-miterlimit:2"
           id="path21011"
           d="m 705.87659,552.2375 -2.784,-4.4928 -1.5744,1.6512 v 2.8416 h -2.496 v -14.246 h 2.496 v 8.256 l 4.224,-4.2624 h 2.88 l -3.8016,3.9552 4.032,6.2976 z"
           stroke-miterlimit="2"
           stroke="null" />
        <path
           style="fill:#f68136;stroke-width:0;stroke-miterlimit:2"
           id="path21013"
           d="m 719.96659,537.9975 v 14.246 h -2.496 v -1.6512 q -0.5568,0.864 -1.44,1.3248 -0.864,0.4416 -2.016,0.4416 -1.4592,0 -2.5728,-0.6528 -1.0944,-0.672 -1.7088,-1.8624 -0.6144,-1.2096 -0.6144,-2.7648 0,-1.536 0.5952,-2.7072 0.6144,-1.1904 1.7088,-1.8432 1.1136,-0.6528 2.5344,-0.6528 1.1712,0 2.0544,0.4608 0.8832,0.4608 1.4592,1.3248 v -5.664 z m -5.4144,12.269 q 1.2864,0 2.0928,-0.864 0.8256,-0.8832 0.8256,-2.2656 0,-1.3824 -0.8256,-2.2464 -0.8064,-0.8832 -2.0928,-0.8832 -1.2864,0 -2.0928,0.8832 -0.8064,0.864 -0.8256,2.2464 0.0192,1.3824 0.8256,2.2656 0.8064,0.864 2.0928,0.864 z"
           stroke-miterlimit="2"
           stroke="null" />
        <path
           style="fill:#f68136;stroke-width:0;stroke-miterlimit:2"
           id="path21015"
           d="m 729.25659,552.2375 v -1.248 q -0.5376,0.672 -1.3824,1.0176 -0.8448,0.3456 -1.9392,0.3456 -1.0752,0 -1.9008,-0.4032 -0.8064,-0.4224 -1.248,-1.152 -0.4416,-0.7296 -0.4416,-1.632 0,-1.44 1.0176,-2.2464 1.0176,-0.8256 2.88,-0.8448 h 2.9952 v -0.2688 q 0,-0.9024 -0.5952,-1.4016 -0.5952,-0.4992 -1.728,-0.4992 -1.4592,0 -3.0528,0.96 l -0.9024,-1.728 q 1.2096,-0.672 2.1888,-0.96 0.9984,-0.3072 2.3232,-0.3072 1.9968,0 3.0912,0.96 1.1136,0.96 1.1328,2.688 l 0.0192,6.72 z m -2.7264,-1.8048 q 1.0752,0 1.8432,-0.4992 0.768,-0.5184 0.864,-1.2672 v -0.9216 h -2.592 q -0.9984,0 -1.4784,0.3072 -0.4608,0.288 -0.4608,0.96 0,0.6528 0.48,1.0368 0.4992,0.384 1.344,0.384 z"
           stroke-miterlimit="2"
           stroke="null" />
        <path
           style="fill:#f68136;stroke-width:0;stroke-miterlimit:2"
           id="path21017"
           d="m 738.64659,553.5275 q -0.48,1.2672 -1.3824,1.9008 -0.8832,0.6528 -2.112,0.6528 -0.7488,0 -1.3632,-0.2304 -0.5952,-0.2112 -1.1904,-0.6912 l 1.0752,-1.9008 q 0.3648,0.2688 0.672,0.384 0.3072,0.1344 0.6528,0.1344 1.0176,0 1.4976,-1.0368 l 0.3072,-0.672 -4.2432,-10.099 h 2.592 l 2.9184,7.4688 2.6688,-7.4688 h 2.5152 z"
           stroke-miterlimit="2"
           stroke="null" />
        <path
           style="fill:#f68136;stroke-width:0;stroke-miterlimit:2"
           id="path21019"
           d="m 750.68659,544.7575 q -0.7488,-0.4416 -1.5552,-0.6912 -0.7872,-0.2496 -1.4592,-0.2496 -0.6336,0 -1.0176,0.2304 -0.3648,0.2112 -0.3648,0.672 0,0.48 0.4608,0.7488 0.48,0.2496 1.4976,0.5376 1.0752,0.3264 1.7664,0.6528 0.6912,0.3072 1.1904,0.9408 0.5184,0.6144 0.5184,1.632 0,1.4976 -1.152,2.304 -1.152,0.8064 -2.8992,0.8064 -1.1904,0 -2.3232,-0.3648 -1.1328,-0.384 -1.92,-1.0752 l 0.864,-1.7472 q 0.6912,0.5952 1.6512,0.9408 0.96,0.3264 1.824,0.3264 0.6912,0 1.0944,-0.2304 0.4224,-0.2496 0.4224,-0.7296 0,-0.5376 -0.48,-0.8064 -0.48,-0.2688 -1.5552,-0.5952 -1.0368,-0.3072 -1.6896,-0.5952 -0.6528,-0.3072 -1.1328,-0.9024 -0.48,-0.6144 -0.48,-1.5936 0,-1.5168 1.0944,-2.304 1.1136,-0.8064 2.784,-0.8064 1.0176,0 1.9968,0.288 0.9984,0.288 1.7664,0.8064 z"
           stroke-miterlimit="2"
           stroke="null" />
        <path
           style="fill:#124353;stroke-width:0;stroke-miterlimit:2"
           id="path21022"
           d="m 427.18659,487.1175 q 0.35856,-1.255 1.0757,-2.0318 0.71712,-0.83664 1.5538,-0.83664 2.0318,0 2.9282,0.77688 0.8964,0.77688 0.8964,2.6892 0,0.53784 -0.83663,3.0478 -1.8526,5.6772 -4.0637,14.044 -0.53784,1.9123 -0.89639,3.3466 -0.29881,1.4342 -0.53785,2.3904 -1.4342,6.1553 -2.5099,9.2628 -0.35855,0.8964 -1.255,1.4342 -0.8964,0.47808 -1.9123,0.47808 -1.0159,0 -2.0318,-0.41832 -0.95616,-0.47808 -1.3745,-1.0757 -1.8526,-3.6454 -4.6015,-9.9202 -2.6892,-6.3346 -4.1832,-11.056 -3.7051,9.3823 -6.6334,18.107 -0.17928,0.53784 -0.41832,1.1952 -0.17928,0.5976 -0.41831,1.255 -0.41833,0.8964 -1.1952,1.4342 -0.77688,0.47808 -1.733,0.47808 -1.0757,0 -2.0916,-0.41832 -1.0159,-0.47808 -1.3745,-1.0757 -0.77689,-1.3147 -1.6733,-4.0637 -0.83663,-2.749 -2.2709,-7.709 l -1.494,-5.0796 q -1.5538,-4.9601 -2.6892,-10.159 -1.1354,-5.1991 -1.1354,-6.215 0,-1.255 1.255,-1.9721 1.255,-0.77688 2.5099,-0.77688 0.71712,0 1.494,0.47808 0.77688,0.41832 1.0159,1.494 2.0916,11.175 6.1553,25.936 1.5538,-3.7051 3.4063,-9.0238 1.9123,-5.3186 3.6454,-10.338 l 0.5976,-1.7928 q 0.23905,-0.8964 1.1952,-1.3745 1.0159,-0.53784 2.0318,-0.53784 1.3147,0 2.1514,0.65736 0.83663,0.65736 1.0757,1.4342 0.0598,0.23904 2.3904,7.1114 2.3306,6.87236 5.5577,13.864 1.1952,-3.5258 2.8685,-11.295 l 0.8964,-3.9442 q 1.6135,-6.3346 2.6294,-9.8006 z"
           stroke-miterlimit="2"
           stroke="null" />
        <path
           style="fill:#124353;stroke-width:0;stroke-miterlimit:2"
           id="path21024"
           d="m 454.59659,483.6575 q 4.0039,0 7.2907,1.0159 3.2868,0.95616 5.3784,2.8685 3.7649,3.4063 5.2589,7.47 1.5538,4.0039 1.5538,10.279 0,1.3147 -0.35856,2.3904 -0.2988,1.0757 -1.0159,2.749 -0.8964,1.8526 -1.0757,2.9282 -1.1952,2.0916 -3.9442,4.0039 -2.6892,1.9123 -5.8565,3.1075 -3.1673,1.1952 -5.5577,1.1952 -11.534,0 -16.434,-7.8883 -1.3745,-2.2111 -2.1514,-4.6015 -0.71712,-2.3904 -0.71712,-4.6613 0,-6.0955 2.1514,-10.578 2.2111,-4.5418 6.0955,-7.0517 2.3306,-1.3745 4.8406,-2.2709 2.5697,-0.95616 4.5418,-0.95616 z m -11.414,21.036 q 0,3.227 1.4342,5.3186 1.494,2.0916 4.5418,4.5418 2.5099,0.95616 3.4063,1.255 0.8964,0.23904 2.0318,0.23904 6.0358,0 9.6214,-3.2868 3.5856,-3.2868 3.5856,-9.0238 0,-4.5418 -1.0159,-7.1712 -1.0159,-2.6294 -3.6454,-4.721 -1.3745,-1.1354 -3.5258,-1.6733 -2.0916,-0.53784 -4.5418,-0.53784 -3.7051,0 -6.3943,2.2111 -2.6892,2.1514 -4.1234,5.6174 -1.3745,3.4661 -1.3745,7.231 z"
           stroke-miterlimit="2"
           stroke="null" />
        <path
           style="fill:#124353;stroke-width:0;stroke-miterlimit:2"
           id="path21026"
           d="m 499.99659,505.8275 q 2.0916,3.5258 4.1832,6.2748 2.1514,2.6892 5.6174,6.6334 0.41832,0.41832 0.41832,0.95616 0,0.83664 -0.95615,1.4342 -0.89641,0.5976 -2.2111,0.5976 -1.8526,0 -4.0039,-1.5538 -1.9123,-1.3745 -3.4063,-3.6454 -1.494,-2.2709 -3.4661,-5.9162 -1.5538,-2.8087 -1.8526,-3.2868 -2.3306,0.95616 -7.2907,1.1952 0,2.0318 0.35856,5.4979 0.35856,3.5856 0.35856,5.1991 0,1.0757 -1.0757,1.7928 -1.0159,0.71712 -2.3306,0.71712 -1.5538,0 -2.3904,-1.255 -0.83664,-1.6733 -1.0757,-4.0039 -0.23903,-2.3306 -0.23903,-5.5577 0,-3.4063 0.41831,-7.709 0.35856,-4.7808 0.35856,-7.0517 0,-1.8526 -0.35856,-4.9601 -0.0598,-0.53784 -0.17928,-1.8526 -0.11952,-1.3147 -0.11952,-2.3904 0,-0.83664 0.5976,-1.4342 0.65736,-0.65736 1.3745,-0.8964 4.8406,-0.77688 9.4421,-0.77688 7.8286,0 12.968,2.9282 5.1394,2.9282 5.1394,8.9042 0,1.8526 -0.83664,3.5856 -0.77689,1.6733 -2.1514,2.8087 -3.6454,2.8087 -7.2907,3.7649 z m 4.0039,-10.338 q 0,-2.8685 -3.0478,-4.6613 -3.0478,-1.8526 -8.6652,-1.8526 -2.5099,0 -4.9601,0.5976 l 0.0598,3.0478 q 0,2.6294 -0.17928,5.1394 -0.17928,2.5099 -0.17928,5.3784 1.0159,-0.23904 2.1514,-0.2988 1.1354,-0.11952 1.494,-0.17928 2.6294,-0.23904 4.0637,-0.5976 2.6892,-0.83664 4.4222,-1.494 1.7928,-0.71712 3.2868,-1.9721 1.5538,-1.3147 1.5538,-3.1075 z"
           stroke-miterlimit="2"
           stroke="null" />
        <path
           style="fill:#124353;stroke-width:0;stroke-miterlimit:2"
           id="path21028"
           d="m 570.72,520.6277 q 0.5976,0.3302 0.8964,0.85851 0.35856,0.52832 0.35856,1.51893 0,1.25471 -0.8964,2.04727 -0.83664,0.72643 -1.9721,0.72643 -1.3147,0 -2.988,-0.72643 -3.3466,-1.65099 -6.5736,-6.07561 -3.1673,-4.4907 -7.6493,-12.87747 -3.4063,2.90569 -6.9322,5.41521 0,1.38688 0.0598,3.23589 0.11952,1.78305 0.11952,2.64158 0.11952,3.83031 0.11952,5.08501 0,1.12265 -0.65736,2.17933 -0.65736,0.99059 -1.9721,0.99059 -1.9123,0 -2.749,-0.6604 -0.83664,-0.72643 -1.0159,-2.04726 -0.47808,-3.30197 -0.47808,-6.33983 0,-3.43403 0.47808,-9.90592 0.47808,-6.20766 0.47808,-9.3116 0,-1.18873 -0.11952,-3.43403 -0.0598,-1.78304 -0.35856,-3.30197 -0.23904,-2.11324 -0.23904,-2.97177 0,-2.11324 0.83664,-3.03786 0.83664,-0.92455 2.5697,-0.92455 1.3147,0 2.1514,0.85851 0.8964,0.79247 1.0159,2.17932 0.2988,5.61335 0.2988,8.65121 -0.0598,1.65099 -0.23904,4.75482 -0.11952,3.03786 -0.23904,3.83031 2.0318,-1.25471 7.9481,-7.19826 5.976,-6.00963 8.4859,-9.44366 l 0.77688,-0.99059 q 0.95616,-1.38687 1.6135,-1.9151 0.65736,-0.52831 1.7928,-0.52831 1.13544,0 2.0318,0.85851 0.95616,0.79247 0.95616,1.9151 0,2.17932 -2.0318,4.42462 -4.9601,5.67943 -9.9202,10.56631 6.9919,14.46215 14.044,18.95318 z"
           stroke-miterlimit="2"
           transform="matrix(1.1963554,0,0,0.84813608,-128.35915,75.458359)"
           stroke="null" />
        <path
           style="fill:#124353;stroke-width:0;stroke-miterlimit:2"
           id="path21030"
           d="m 595.85659,511.8575 q -2.2111,0 -3.6454,-1.1952 -1.4342,-1.1952 -2.2709,-3.4661 -1.3745,2.3904 -3.7649,3.7649 -2.3904,1.3745 -5.1394,1.3745 -1.3147,0 -2.3306,-0.47808 -0.95616,-0.47808 -2.4502,-1.494 -0.95616,-0.5976 -1.4342,-1.8526 -0.41832,-1.3147 -0.41832,-2.8087 0,-1.7928 0.35856,-3.1673 0.35856,-1.3745 1.0159,-2.988 1.7928,-4.243 4.482,-5.3784 1.4342,-0.65736 2.2111,-0.8964 0.77688,-0.2988 1.6733,-0.2988 1.6135,0 3.227,0.5976 1.6135,0.53784 2.5697,1.9721 0.65736,-0.83664 1.1952,-1.1952 0.53784,-0.35856 1.5538,-0.35856 0.83664,0 1.3745,0.47808 0.53784,0.47808 0.53784,1.4342 0,0.83664 -0.65736,3.0478 -0.71712,2.5099 -0.71712,3.6454 0,2.1514 0.5976,3.4661 0.65736,1.3147 2.0318,1.3147 1.8526,0 2.6294,-2.0916 0.83664,-2.1514 0.83664,-5.1394 0,-3.1075 -0.5976,-4.9601 -0.5976,-1.8526 -2.0318,-3.7051 -1.255,-1.6733 -4.1832,-2.6294 -2.8685,-1.0159 -5.7967,-1.0159 -2.9282,0 -6.1553,1.494 -3.227,1.494 -4.7808,3.1673 -2.8087,2.9282 -3.5856,5.5577 -0.65736,2.0916 -1.0159,3.7649 -0.35856,1.6733 -0.41832,3.4661 0,1.8526 0.5976,3.9442 0.5976,2.0318 1.6733,3.5856 0.77688,1.0757 1.8526,2.0318 1.0757,0.8964 2.0916,1.1952 l 1.6135,0.41832 q 3.8246,1.0159 5.0198,1.0159 2.5099,0 4.482,-0.41832 1.9721,-0.41832 3.7051,-1.494 0.2988,-0.17928 1.5538,-0.95616 1.255,-0.83664 2.2111,-0.83664 2.3306,0 2.3306,2.2111 0,1.3147 -1.3147,2.3306 -1.3147,0.95616 -3.7649,2.0916 -2.2709,1.0757 -4.243,1.3745 -1.9721,0.2988 -5.0198,0.2988 -2.1514,0 -6.4541,-0.71712 -4.1234,-1.733 -6.0358,-3.5856 -2.4502,-2.2111 -4.0039,-5.4979 -1.494,-3.3466 -1.494,-6.6334 0,-2.0318 0.47808,-4.0039 0.47808,-1.9721 1.3745,-4.721 1.3147,-4.1832 5.3784,-8.1274 2.0318,-1.9721 6.4541,-3.5856 4.482,-1.6135 7.9481,-1.6135 4.243,0 7.2907,1.1952 3.1075,1.1952 4.5418,2.3904 2.9282,2.5697 4.1234,5.737 1.1952,3.1673 1.1952,7.5298 0,5.4979 -2.1514,7.8883 -1.6733,1.8526 -3.1075,2.6892 -1.3745,0.83664 -3.227,0.83664 z m -10.936,-5.1394 q 3.5258,-2.749 3.5258,-6.6334 0,-0.95616 -1.1952,-1.9721 -1.1354,-1.0757 -2.4502,-1.0757 -1.733,0 -3.0478,1.1952 -1.3147,1.1952 -2.0318,3.0478 -0.65736,1.8526 -0.65736,3.7051 0,1.1952 0.53784,2.1514 0.53784,0.95616 1.0757,1.0159 1.9721,0.0598 4.243,-1.4342 z"
           stroke-miterlimit="2"
           stroke="null" />
        <path
           style="fill:#124353;stroke-width:0;stroke-miterlimit:2"
           id="path21032"
           d="m 648.65659,513.5375 q 1.1354,0 1.6733,0.8964 0.5976,0.83664 0.5976,1.8526 0,1.255 -0.41832,1.7928 -0.35856,0.47808 -1.4342,1.0159 -2.5099,1.1952 -6.215,1.9123 -3.7051,0.71712 -7.9481,0.71712 -5.3186,0 -7.8286,-1.7928 -2.4502,-1.7928 -3.0478,-4.3027 -0.53784,-2.5697 -0.53784,-6.6931 0,-4.4222 0.35856,-8.6652 0.35856,-4.3027 1.255,-10.936 0.41832,-2.8685 2.2709,-4.1234 1.8526,-1.3147 4.0637,-1.3147 1.8526,0 6.0358,-0.11952 l 5.1991,-0.0598 q 3.227,0 4.6613,0.17928 1.7928,0.35856 2.6294,0.83664 0.8964,0.41832 0.8964,1.494 0,1.1952 -0.83664,2.3306 -0.77688,1.1354 -2.3904,1.1354 -1.8526,0 -5.3186,-0.23904 -3.4661,-0.23904 -5.1991,-0.23904 -1.494,0 -2.9282,0.17928 -1.6733,0.11952 -2.3904,0.41832 -0.71712,0.2988 -0.83664,1.0159 -0.83664,6.1553 -0.83664,9.0835 1.3745,0.17928 2.6892,0.17928 1.6733,0 3.5856,-0.17928 1.9123,-0.17928 2.4502,-0.23904 3.1673,-0.2988 5.4382,-0.2988 1.3147,0 1.9721,0.47808 0.71712,0.47808 0.71712,1.3147 0,1.3147 -0.71712,2.0318 -0.65736,0.71712 -2.3904,1.0757 -2.0916,0.41832 -5.1991,0.65736 -3.0478,0.23904 -5.976,0.23904 -1.0159,0 -2.8087,-0.11952 -0.17928,3.6454 -0.17928,6.7529 0,4.243 5.6174,4.243 2.988,0 4.9601,-0.41832 1.9721,-0.41832 4.5418,-1.1952 2.3904,-0.8964 3.8246,-0.8964 z"
           stroke-miterlimit="2"
           stroke="null" />
        <path
           style="fill:#124353;stroke-width:0;stroke-miterlimit:2"
           id="path21034"
           d="m 683.60659,520.7675 q -0.77687,-1.0159 -1.3147,-2.2111 -0.53785,-1.255 -1.1354,-2.988 -0.11952,-0.2988 -0.71711,-1.7928 -0.53784,-1.494 -1.255,-2.5697 -3.7649,0.53784 -6.1553,0.53784 -1.3147,0 -2.9282,-0.0598 -1.5538,-0.11952 -2.3306,-0.11952 -2.988,-0.23904 -4.7808,-0.23904 -0.71713,0.95616 -1.255,2.0318 -0.47808,1.0757 -1.255,3.227 -1.0757,3.1075 -1.8526,4.4222 -0.53783,0.8964 -2.0916,0.8964 -1.3147,0 -2.4502,-0.53784 -1.0757,-0.5976 -1.0757,-1.6135 0.47807,-2.2709 1.494,-4.7808 1.0757,-2.5697 3.0478,-6.8126 l 2.3904,-5.8565 q 1.9721,-5.0198 3.5856,-8.6054 1.6733,-3.5856 4.3625,-8.4859 0.35855,-0.71712 1.1952,-1.1952 0.83665,-0.53784 1.8526,-0.53784 1.1354,0 1.6135,0.17928 0.53784,0.11952 0.83663,0.47808 0.2988,0.2988 0.8964,1.3147 2.0318,3.1673 3.4661,6.5138 1.494,3.3466 3.7649,9.2628 l 1.255,3.1673 q 1.6733,4.3027 2.8685,7.231 1.255,2.8685 2.749,5.2589 0.95616,1.5538 0.95616,2.1514 0,1.4342 -0.8964,2.2111 -0.83663,0.71712 -2.2111,0.71712 -1.733,0 -2.6294,-1.1952 z m -6.1553,-14.462 q -0.95617,-2.0318 -2.749,-7.0517 -1.8526,-5.3784 -3.7051,-8.5457 -1.1354,2.8685 -3.3466,7.4102 -1.494,2.8087 -3.4063,8.1274 3.8246,0.47808 8.2469,0.47808 3.1673,0 4.9601,-0.41832 z"
           stroke-miterlimit="2"
           stroke="null" />
        <path
           style="fill:#124353;stroke-width:0;stroke-miterlimit:2"
           id="path21036"
           d="m 695.66659,520.5875 q -2.6294,-0.23904 -3.5258,-1.255 -0.8964,-1.0757 -0.8964,-2.2111 0,-0.71712 0.2988,-1.6135 0.2988,-0.8964 0.5976,-1.255 2.8087,-3.4661 10.518,-12.191 7.709,-8.725 10.338,-11.653 l -2.3306,-0.11952 q -3.1673,-0.17928 -5.3186,-0.17928 -0.77689,0 -3.9442,0.2988 -1.9721,0.2988 -3.5856,0.2988 -2.3306,0 -3.4063,-0.41832 -1.0159,-0.47808 -1.255,-1.0757 -0.17928,-0.5976 -0.17928,-1.6733 0,-0.77688 0.59759,-1.5538 0.65736,-0.83664 1.5538,-0.95616 2.3904,-0.2988 6.3943,-0.53784 4.0039,-0.2988 6.5138,-0.2988 7.5895,0 10.697,0.77688 0.77688,0.23904 1.3147,1.1952 0.53784,0.95616 0.53784,1.494 0,0.71712 -0.23904,1.494 -0.17928,0.77688 -0.53784,1.3147 -0.77689,1.3745 -3.5856,5.0198 -2.8087,3.5856 -5.976,7.231 -3.3466,3.9442 -6.8724,7.8286 -3.4661,3.8844 -4.482,4.9601 1.6733,-0.0598 5.1394,-0.2988 5.6174,-0.35856 8.4262,-0.35856 2.2111,0 4.9003,0.2988 2.749,0.2988 4.1234,1.1952 0.41832,0.23904 0.77689,1.3745 0.41832,1.1354 0.41832,1.8526 0,0.77688 -0.77689,1.3745 -0.71712,0.5976 -2.0318,0.5976 -0.11952,0 -2.6294,-0.23904 -5.1991,-0.5976 -6.8724,-0.5976 l -4.243,0.0598 q -2.8685,0.11952 -4.3625,0.11952 -3.6454,0 -6.0955,-0.2988 z"
           stroke-miterlimit="2"
           stroke="null" />
        <path
           style="fill:#124353;stroke-width:0;stroke-miterlimit:2"
           id="path21038"
           d="m 751.44659,513.5375 q 1.1354,0 1.6733,0.8964 0.5976,0.83664 0.5976,1.8526 0,1.255 -0.41832,1.7928 -0.35856,0.47808 -1.4342,1.0159 -2.5099,1.1952 -6.215,1.9123 -3.7051,0.71712 -7.9481,0.71712 -5.3186,0 -7.8286,-1.7928 -2.4502,-1.7928 -3.0478,-4.3027 -0.53784,-2.5697 -0.53784,-6.6931 0,-4.4222 0.35856,-8.6652 0.35856,-4.3027 1.255,-10.936 0.41832,-2.8685 2.2709,-4.1234 1.8526,-1.3147 4.0637,-1.3147 1.8526,0 6.0358,-0.11952 l 5.1991,-0.0598 q 3.227,0 4.6613,0.17928 1.7928,0.35856 2.6294,0.83664 0.8964,0.41832 0.8964,1.494 0,1.1952 -0.83664,2.3306 -0.77688,1.1354 -2.3904,1.1354 -1.8526,0 -5.3186,-0.23904 -3.4661,-0.23904 -5.1991,-0.23904 -1.494,0 -2.9282,0.17928 -1.6733,0.11952 -2.3904,0.41832 -0.71712,0.2988 -0.83664,1.0159 -0.83664,6.1553 -0.83664,9.0835 1.3745,0.17928 2.6892,0.17928 1.6733,0 3.5856,-0.17928 1.9123,-0.17928 2.4502,-0.23904 3.1673,-0.2988 5.4382,-0.2988 1.3147,0 1.9721,0.47808 0.71712,0.47808 0.71712,1.3147 0,1.3147 -0.71712,2.0318 -0.65736,0.71712 -2.3904,1.0757 -2.0916,0.41832 -5.1991,0.65736 -3.0478,0.23904 -5.976,0.23904 -1.0159,0 -2.8087,-0.11952 -0.17928,3.6454 -0.17928,6.7529 0,4.243 5.6174,4.243 2.988,0 4.9601,-0.41832 1.9721,-0.41832 4.5418,-1.1952 2.3904,-0.8964 3.8246,-0.8964 z"
           stroke-miterlimit="2"
           stroke="null" />
        <path
           style="fill:#f68136;stroke-width:0.61500001"
           id="icon"
           d="m 320.51659,461.6275 c -18.6,-0.003 -34.018,0.007 -34.262,0.0219 -0.24448,0.0147 -0.59839,0.0438 -0.78646,0.0646 -0.18806,0.0209 -0.62336,0.0841 -0.96702,0.14087 -0.344,0.0564 -0.92121,0.17816 -1.2823,0.27014 -0.36143,0.092 -0.87262,0.23901 -1.1359,0.32689 -0.2633,0.0875 -0.70953,0.25167 -0.99163,0.36451 -0.2821,0.11284 -0.80528,0.34981 -1.1626,0.52694 -0.35732,0.17678 -0.88424,0.46367 -1.1711,0.63769 -0.28655,0.17371 -0.70989,0.44658 -0.94034,0.6066 -0.23046,0.15968 -0.64181,0.46914 -0.91468,0.68732 -0.27253,0.2185 -0.71125,0.59669 -0.97453,0.84083 -0.2633,0.24449 -0.62607,0.60421 -0.80596,0.80012 -0.17986,0.19593 -0.45717,0.51017 -0.61654,0.69894 -0.159,0.18841 -0.42332,0.52249 -0.58779,0.74237 -0.16413,0.21987 -0.42743,0.59669 -0.58506,0.83738 -0.1573,0.24073 -0.39734,0.62952 -0.53275,0.86445 -0.13541,0.23491 -0.36587,0.6733 -0.51222,0.97416 -0.14636,0.3009 -0.36007,0.78099 -0.4753,1.0665 -0.11558,0.28587 -0.28655,0.75331 -0.38058,1.0388 -0.094,0.28517 -0.23286,0.76696 -0.30911,1.0703 -0.0763,0.3033 -0.17678,0.7591 -0.22397,1.0132 -0.0468,0.25372 -0.1149,0.69243 -0.1508,0.97453 -0.0362,0.2821 -0.0827,0.82066 -0.10327,1.1968 -0.0267,0.48829 -0.0342,10.325 -0.0263,34.365 l 0.0109,33.681 0.0592,0.49581 c 0.0325,0.27253 0.0834,0.65719 0.11319,0.85485 0.0297,0.1973 0.0998,0.58199 0.15558,0.85485 0.0557,0.27253 0.14875,0.67257 0.20619,0.88905 0.0578,0.2161 0.17405,0.60865 0.25851,0.87195 0.0845,0.26329 0.24517,0.70952 0.35665,0.99162 0.11181,0.2821 0.33817,0.78991 0.50333,1.1284 0.16516,0.33852 0.39733,0.78474 0.51633,0.99163 0.11865,0.20687 0.35972,0.596 0.53548,0.86444 0.17576,0.26876 0.44931,0.66101 0.60797,0.87195 0.15866,0.21098 0.41546,0.53753 0.5707,0.72558 0.15558,0.18806 0.6066,0.6661 1.0029,1.062 0.3963,0.39596 0.89722,0.86684 1.1137,1.0456 0.21645,0.17918 0.55497,0.4459 0.75227,0.59259 0.19764,0.14669 0.55155,0.39357 0.78646,0.54881 0.23526,0.15525 0.61992,0.39323 0.85485,0.52864 0.23526,0.13575 0.68898,0.37408 1.0087,0.53001 0.31972,0.15592 0.81211,0.37579 1.0942,0.48897 0.2821,0.11318 0.75602,0.28415 1.0528,0.3799 0.29714,0.0957 0.82029,0.24346 1.1626,0.32792 0.34262,0.0848 0.84593,0.19182 1.1185,0.23765 0.27287,0.0462 0.72662,0.11147 1.0087,0.14566 l 0.51291,0.0619 h 34.295 c 27.824,0 34.367,-0.008 34.672,-0.0441 0.20688,-0.0243 0.57959,-0.0742 0.82816,-0.11045 0.24894,-0.0366 0.64114,-0.10532 0.87195,-0.15319 0.23115,-0.0478 0.62681,-0.14122 0.87982,-0.20756 0.25304,-0.0663 0.65313,-0.18328 0.88904,-0.25987 0.23594,-0.0766 0.64459,-0.22397 0.90787,-0.32758 0.26329,-0.10361 0.67877,-0.28073 0.92323,-0.39358 0.24449,-0.11284 0.62915,-0.30534 0.85485,-0.42776 0.22569,-0.12276 0.56421,-0.31561 0.75227,-0.42845 0.18807,-0.11318 0.48043,-0.29817 0.64969,-0.41101 0.16926,-0.11284 0.47769,-0.33134 0.6856,-0.48487 0.20756,-0.15388 0.56933,-0.4394 0.80356,-0.63431 0.23423,-0.19525 0.71088,-0.6401 1.0593,-0.98856 0.34843,-0.34877 0.78099,-0.81075 0.96118,-1.0272 0.18055,-0.21645 0.45513,-0.56249 0.61071,-0.76936 0.15524,-0.20688 0.42469,-0.59156 0.59839,-0.85485 0.17371,-0.2633 0.41272,-0.64797 0.53172,-0.85485 0.11865,-0.20688 0.36519,-0.68388 0.54779,-1.06 0.18225,-0.37613 0.40486,-0.8685 0.4941,-1.0942 0.0893,-0.22568 0.2438,-0.65786 0.34331,-0.96087 0.0995,-0.30262 0.24175,-0.79501 0.31663,-1.0942 0.0746,-0.29885 0.17576,-0.76697 0.225,-1.0395 0.0493,-0.27287 0.11148,-0.66506 0.13849,-0.87195 0.027,-0.20687 0.066,-0.60694 0.0868,-0.88904 0.0274,-0.37101 0.0346,-9.915 0.0263,-34.502 l -0.0113,-33.989 -0.0742,-0.5642 c -0.041,-0.31049 -0.10669,-0.74883 -0.14636,-0.97453 -0.0393,-0.22568 -0.10224,-0.54882 -0.13916,-0.71808 -0.0373,-0.16926 -0.11422,-0.48487 -0.17132,-0.70097 -0.0571,-0.21645 -0.18157,-0.63192 -0.27663,-0.92324 -0.0947,-0.29168 -0.26363,-0.76082 -0.37545,-1.0429 -0.11147,-0.2821 -0.331,-0.77619 -0.48726,-1.098 -0.15661,-0.32177 -0.40384,-0.79126 -0.54984,-1.0429 -0.14601,-0.25167 -0.39221,-0.65036 -0.54779,-0.88529 -0.15524,-0.23525 -0.40964,-0.59668 -0.56523,-0.80356 -0.15558,-0.20687 -0.40485,-0.52248 -0.5536,-0.70097 -0.14874,-0.17884 -0.46435,-0.53036 -0.70134,-0.78167 -0.23731,-0.25133 -0.60934,-0.61961 -0.82681,-0.81863 -0.21747,-0.19867 -0.61104,-0.53308 -0.87434,-0.74236 -0.2633,-0.20961 -0.63259,-0.48795 -0.82066,-0.61857 -0.18807,-0.13062 -0.48795,-0.33065 -0.66678,-0.44452 -0.17849,-0.11387 -0.5324,-0.32313 -0.78646,-0.46504 -0.25372,-0.1419 -0.5731,-0.31356 -0.70916,-0.38229 -0.13609,-0.0684 -0.51325,-0.23765 -0.83775,-0.37648 -0.32451,-0.13848 -0.79778,-0.32416 -1.0518,-0.41238 -0.25372,-0.0882 -0.67293,-0.22021 -0.93142,-0.29339 -0.2585,-0.0732 -0.71229,-0.1867 -1.0087,-0.25235 -0.29647,-0.0657 -0.80799,-0.15797 -1.1373,-0.20516 -0.32894,-0.0469 -0.76764,-0.10498 -0.97453,-0.12857 -0.29919,-0.0342 -7.2822,-0.0438 -34.194,-0.0479 z m 11.644,13.702 c 0.27321,-0.003 0.62712,0.0113 0.78647,0.0311 0.15934,0.0198 0.4052,0.0595 0.54607,0.0886 0.14123,0.0287 0.42572,0.10669 0.63259,0.17303 0.20688,0.0667 0.5153,0.18601 0.68524,0.26535 0.17028,0.079 0.42127,0.20926 0.55805,0.28928 0.13711,0.08 0.39801,0.25816 0.57992,0.39597 0.18191,0.1378 0.50368,0.42503 0.71463,0.63806 0.21064,0.21337 0.46333,0.48761 0.56113,0.61002 0.0978,0.12207 0.26945,0.36075 0.38092,0.53001 0.11181,0.16926 0.2927,0.49239 0.40212,0.71807 0.10942,0.22568 0.25269,0.57172 0.31801,0.76936 0.0653,0.1973 0.15011,0.50505 0.18806,0.68388 0.0383,0.1785 0.0862,0.47427 0.106,0.65689 0.0202,0.18259 0.0366,0.49034 0.0362,0.68388 0,0.19354 -0.0161,0.49034 -0.0356,0.65958 -0.0191,0.16926 -0.0646,0.45 -0.10087,0.62367 -0.0362,0.17405 -0.12344,0.48932 -0.19354,0.70098 -0.0701,0.212 -0.22124,0.57036 -0.33579,0.79673 -0.1142,0.22671 -0.30945,0.55737 -0.43358,0.73518 -0.12412,0.1778 -0.34809,0.46196 -0.49786,0.63123 -0.15011,0.16926 -0.38639,0.40828 -0.5259,0.53104 -0.13917,0.12275 -0.32998,0.2862 -0.42401,0.36313 -0.094,0.0769 -0.31698,0.2356 -0.49581,0.35289 -0.17849,0.11728 -0.4941,0.29509 -0.70098,0.39528 -0.20687,0.0999 -0.5365,0.2373 -0.73277,0.30501 -0.19627,0.0677 -0.54231,0.16242 -0.76937,0.20995 -0.31492,0.066 -0.55941,0.0913 -1.0326,0.10634 -0.40007,0.0127 -0.7396,0.005 -0.95743,-0.0219 -0.18568,-0.0229 -0.4818,-0.0725 -0.65824,-0.1101 -0.1761,-0.0376 -0.49171,-0.12755 -0.70098,-0.20004 -0.20892,-0.0721 -0.48726,-0.17917 -0.61789,-0.23799 l -0.23764,-0.10703 -3.4468,3.4468 -3.4468,3.4468 v 8.8609 l 0.19662,0.0616 c 0.10805,0.0338 0.40451,0.13814 0.65823,0.23149 0.25406,0.0937 0.64114,0.25851 0.86063,0.36656 l 0.39904,0.19661 3.5333,-3.5356 c 1.9433,-1.9446 3.5931,-3.5695 3.6663,-3.6105 0.0728,-0.041 0.16345,-0.0923 0.20106,-0.11421 0.0376,-0.0219 0.078,-0.053 0.0896,-0.0694 0.0113,-0.0168 0.0653,-0.0643 0.11935,-0.10566 0.0544,-0.0417 0.13335,-0.0759 0.17541,-0.0759 0.0424,0 0.0957,-0.0229 0.11934,-0.0513 0.0373,-0.0448 0.71327,-0.052 5.5969,-0.0598 l 5.5545,-0.009 0.1631,-0.39323 c 0.0899,-0.21611 0.21474,-0.48556 0.27766,-0.5984 0.0633,-0.11284 0.22226,-0.36451 0.35357,-0.55907 0.1313,-0.1949 0.40041,-0.52282 0.59839,-0.72933 0.19764,-0.20619 0.4835,-0.47495 0.6353,-0.59703 0.15182,-0.12207 0.41443,-0.30809 0.58369,-0.41374 0.16926,-0.10566 0.477,-0.27253 0.68388,-0.37066 0.20687,-0.0985 0.53992,-0.23355 0.73996,-0.30057 0.20038,-0.0667 0.51565,-0.15216 0.70098,-0.18977 0.18534,-0.038 0.48932,-0.0865 0.67533,-0.1084 0.20825,-0.0246 0.58301,-0.0328 0.97453,-0.0212 0.49787,0.0147 0.72595,0.0376 1.0477,0.10566 0.22636,0.0479 0.59565,0.15045 0.82065,0.22807 0.225,0.0776 0.57856,0.22603 0.78542,0.33032 0.20687,0.10395 0.48384,0.25817 0.61549,0.34331 0.13165,0.0848 0.36246,0.25029 0.51291,0.36758 0.15045,0.11763 0.40623,0.34604 0.5683,0.50813 0.16209,0.16174 0.37956,0.39836 0.48351,0.52556 0.10395,0.1272 0.27457,0.36006 0.37955,0.51735 0.10498,0.15695 0.27424,0.44931 0.37614,0.64969 0.10189,0.20003 0.23969,0.50983 0.30603,0.68868 0.0663,0.17849 0.15969,0.47906 0.20756,0.66746 0.0478,0.18875 0.11216,0.53479 0.14327,0.76936 0.0414,0.31493 0.0517,0.5748 0.0383,0.99095 -0.01,0.31014 -0.0438,0.7102 -0.0756,0.88904 -0.0318,0.1785 -0.10874,0.50231 -0.17097,0.71943 -0.0622,0.21679 -0.18396,0.55531 -0.27013,0.75227 -0.0862,0.19661 -0.22978,0.48453 -0.31903,0.63978 -0.0893,0.15524 -0.26227,0.42435 -0.384,0.5984 -0.12891,0.18396 -0.42195,0.51667 -0.70098,0.79569 -0.27902,0.27902 -0.61173,0.57206 -0.79569,0.70097 -0.17404,0.12174 -0.44315,0.29475 -0.59839,0.384 -0.15524,0.0892 -0.44316,0.23287 -0.63979,0.31903 -0.19695,0.0862 -0.53547,0.2079 -0.75226,0.27014 -0.21714,0.0622 -0.54061,0.13883 -0.71943,0.17062 -0.17849,0.0318 -0.57172,0.0663 -0.87367,0.0766 -0.33134,0.0116 -0.68388,0.003 -0.88904,-0.0209 -0.18704,-0.0222 -0.48419,-0.0701 -0.66027,-0.10702 -0.17575,-0.0366 -0.50094,-0.12721 -0.72287,-0.20141 -0.22158,-0.0742 -0.57753,-0.22191 -0.79126,-0.32826 -0.21371,-0.10668 -0.53445,-0.2903 -0.71328,-0.40827 -0.17849,-0.11797 -0.47393,-0.33989 -0.6562,-0.49308 -0.18226,-0.15319 -0.44931,-0.41306 -0.59327,-0.57719 -0.1443,-0.16448 -0.35117,-0.42196 -0.45957,-0.57241 -0.10839,-0.15045 -0.27594,-0.41067 -0.37169,-0.57856 -0.0961,-0.16755 -0.24414,-0.46982 -0.32928,-0.67121 -0.0848,-0.2014 -0.15456,-0.38366 -0.15456,-0.40452 0,-0.028 -1.3096,-0.0383 -4.8812,-0.0383 h -4.8812 l -3.1934,3.1934 -3.193,3.1934 0.10497,0.18328 c 0.0574,0.10088 0.16174,0.31424 0.2315,0.47394 0.0694,0.16002 0.21508,0.54436 0.32313,0.85485 l 0.19696,0.5642 5.1804,0.0171 5.1808,0.0171 0.066,0.0598 c 0.0366,0.0328 0.0824,0.0598 0.10225,0.0598 0.0195,0 0.055,0.0229 0.0783,0.0513 0.0233,0.028 0.0711,0.0513 0.106,0.0513 0.0349,0 0.0886,0.0383 0.119,0.0848 0.0307,0.0469 0.11181,0.11832 0.1802,0.15866 0.0687,0.0407 1.8287,1.7754 3.9111,3.8554 l 3.7863,3.7812 0.11181,-0.0441 c 0.0616,-0.0246 0.2503,-0.0957 0.41956,-0.15798 0.16926,-0.0626 0.47256,-0.15387 0.67429,-0.20345 0.2014,-0.0496 0.52454,-0.1125 0.71807,-0.13985 0.19457,-0.0277 0.60934,-0.0503 0.92834,-0.0506 0.34536,-3.4e-4 0.72287,0.0205 0.94034,0.0523 0.20003,0.0291 0.53787,0.0981 0.75122,0.15319 0.21303,0.0554 0.52864,0.15661 0.70098,0.22533 0.17234,0.0684 0.42093,0.17816 0.55258,0.24381 0.13164,0.0657 0.37032,0.20414 0.53,0.30809 0.16003,0.1036 0.38298,0.25885 0.49582,0.34501 0.11284,0.0862 0.38023,0.32621 0.59394,0.53377 0.21372,0.20756 0.48488,0.5006 0.6025,0.65104 0.11763,0.15046 0.27971,0.38127 0.36041,0.51291 0.081,0.13165 0.2055,0.36383 0.27731,0.51633 0.0718,0.15217 0.18499,0.43974 0.25167,0.63874 0.0667,0.19935 0.1508,0.50539 0.18738,0.68081 0.0362,0.17508 0.0845,0.53 0.10634,0.78849 0.0311,0.3604 0.0311,0.57993 3.5e-4,0.94033 -0.0222,0.25851 -0.0793,0.64698 -0.1272,0.8634 -0.0475,0.21611 -0.13233,0.53172 -0.18841,0.70098 -0.0557,0.16926 -0.18465,0.48111 -0.28621,0.6931 -0.10155,0.21201 -0.27184,0.51975 -0.37818,0.68388 -0.10669,0.16414 -0.30843,0.44042 -0.44897,0.61379 -0.14019,0.1737 -0.40315,0.45546 -0.58369,0.6268 -0.18089,0.17097 -0.46846,0.41512 -0.63874,0.54232 -0.17029,0.12754 -0.4329,0.30604 -0.58335,0.39699 -0.15046,0.0906 -0.41956,0.23355 -0.5984,0.31732 -0.17849,0.0838 -0.50333,0.21098 -0.72152,0.28279 -0.21816,0.0718 -0.57206,0.16584 -0.78646,0.20926 -0.34433,0.0698 -0.48555,0.079 -1.2104,0.078 -0.72183,-10e-4 -0.8634,-0.0106 -1.1756,-0.0786 -0.19525,-0.0424 -0.50299,-0.12446 -0.68388,-0.18225 -0.18089,-0.0581 -0.47598,-0.16995 -0.65584,-0.24893 -0.1802,-0.079 -0.46128,-0.22466 -0.62509,-0.32348 -0.16345,-0.0988 -0.41751,-0.26877 -0.56386,-0.3775 -0.14669,-0.1084 -0.41717,-0.34126 -0.60113,-0.51736 -0.18396,-0.17576 -0.45136,-0.45888 -0.59395,-0.62883 -0.14259,-0.16995 -0.35049,-0.4476 -0.46196,-0.61685 -0.11113,-0.16926 -0.27937,-0.46093 -0.3734,-0.64796 -0.094,-0.18704 -0.22123,-0.47153 -0.2821,-0.63259 -0.0612,-0.16071 -0.15114,-0.44623 -0.20004,-0.63431 -0.0485,-0.18807 -0.11249,-0.50539 -0.14156,-0.70541 -0.0298,-0.20345 -0.053,-0.59292 -0.053,-0.88461 0,-0.29475 0.0233,-0.67909 0.0533,-0.88462 0.0294,-0.20003 0.0913,-0.51291 0.13712,-0.6955 0.0462,-0.1826 0.12378,-0.44418 0.17302,-0.5813 0.0489,-0.13711 0.14361,-0.36963 0.21063,-0.51667 l 0.12173,-0.26774 -3.4338,-3.4338 -3.4341,-3.4341 h -8.9015 l -0.12789,0.38468 c -0.0704,0.21166 -0.19558,0.55395 -0.27834,0.76082 -0.0827,0.20687 -0.21713,0.50129 -0.29817,0.65412 l -0.14772,0.27765 3.4676,3.4666 c 2.8432,2.8422 3.4891,3.5045 3.5869,3.6789 0.066,0.11694 0.13882,0.22465 0.16207,0.23936 0.0236,0.0147 0.0691,0.0684 0.10156,0.11934 0.0325,0.0513 0.0592,0.12207 0.0592,0.15797 0,0.0359 0.0308,0.10395 0.0684,0.15182 l 0.068,0.0869 0.009,5.5316 0.008,5.5316 0.27355,0.10806 c 0.15045,0.0592 0.40417,0.1737 0.5642,0.25474 0.16003,0.0807 0.39836,0.21576 0.53001,0.30022 0.13164,0.0845 0.38092,0.26774 0.55394,0.40794 0.17268,0.13985 0.43084,0.37818 0.57378,0.53 0.14258,0.15148 0.32587,0.36246 0.40724,0.46812 0.0817,0.106 0.2356,0.32724 0.34263,0.49137 0.10702,0.16413 0.27799,0.47188 0.37989,0.68388 0.1019,0.212 0.2462,0.57069 0.3204,0.79741 0.0745,0.22671 0.16824,0.58061 0.2079,0.78646 0.04,0.20585 0.0896,0.58711 0.1101,0.84735 0.0284,0.35185 0.0277,0.59258 -0.002,0.94033 -0.0219,0.25714 -0.0711,0.62127 -0.10976,0.80934 -0.0383,0.18807 -0.13097,0.52591 -0.20585,0.75092 -0.0749,0.22499 -0.20551,0.55565 -0.29065,0.73517 -0.0848,0.17952 -0.22568,0.44144 -0.31287,0.58266 -0.0872,0.14088 -0.24005,0.36759 -0.33955,0.50334 -0.0998,0.13574 -0.29783,0.37784 -0.44007,0.53787 -0.1426,0.16003 -0.40828,0.4158 -0.59054,0.5683 -0.18225,0.15251 -0.46879,0.36964 -0.63701,0.48214 -0.16824,0.11284 -0.50677,0.30364 -0.75227,0.424 -0.24552,0.12036 -0.61208,0.27253 -0.81414,0.33852 -0.20209,0.0657 -0.5177,0.14943 -0.70098,0.18636 -0.18328,0.0369 -0.48281,0.0834 -0.66543,0.10326 -0.18259,0.0199 -0.47187,0.0362 -0.64249,0.0362 -0.17062,0 -0.45991,-0.0164 -0.64249,-0.0362 -0.1826,-0.0198 -0.48213,-0.0663 -0.66543,-0.10326 -0.18328,-0.037 -0.49855,-0.12104 -0.70061,-0.18704 -0.20174,-0.0663 -0.52658,-0.19662 -0.72151,-0.28962 -0.19491,-0.0933 -0.47223,-0.24073 -0.61587,-0.32793 -0.14395,-0.0872 -0.40759,-0.26807 -0.58642,-0.40143 -0.17849,-0.1337 -0.47906,-0.39733 -0.66746,-0.58575 -0.18841,-0.1884 -0.45205,-0.48897 -0.5854,-0.66745 -0.13336,-0.17884 -0.30878,-0.43256 -0.38948,-0.56421 -0.0807,-0.13164 -0.22055,-0.39323 -0.31082,-0.58129 -0.0899,-0.18807 -0.22499,-0.52659 -0.30022,-0.75227 -0.0749,-0.22568 -0.1679,-0.5642 -0.20619,-0.75227 -0.0383,-0.18807 -0.0879,-0.54608 -0.11045,-0.79569 -0.0311,-0.34946 -0.0311,-0.56591 -3.4e-4,-0.94033 0.0222,-0.26774 0.0718,-0.64046 0.11045,-0.82853 0.0386,-0.18807 0.1313,-0.52659 0.20585,-0.75227 0.0749,-0.22568 0.21849,-0.57959 0.31971,-0.78646 0.10087,-0.20687 0.27971,-0.52249 0.39699,-0.70098 0.11763,-0.17849 0.3016,-0.43255 0.40964,-0.5642 0.10772,-0.13164 0.33237,-0.37306 0.49924,-0.53616 0.16721,-0.16345 0.38844,-0.36451 0.49171,-0.44726 0.10361,-0.0824 0.30364,-0.22739 0.44452,-0.32176 0.14122,-0.0947 0.37682,-0.23765 0.52351,-0.31801 0.14704,-0.0804 0.43153,-0.21337 0.63259,-0.29509 l 0.36553,-0.14909 0.009,-4.8641 0.009,-4.8644 -3.1202,-3.1206 c -1.7158,-1.7165 -3.1386,-3.1209 -3.1612,-3.1209 -0.0226,0 -0.18431,0.078 -0.35938,0.17302 -0.17474,0.0951 -0.44863,0.23183 -0.60866,0.30364 -0.15968,0.0718 -0.41819,0.17097 -0.57377,0.21987 -0.15559,0.0493 -0.34399,0.0992 -0.41888,0.11113 l -0.13575,0.0219 v 10.341 l -0.0684,0.0619 c -0.0376,0.0342 -0.0684,0.0807 -0.0684,0.10361 0,0.0229 -0.0229,0.0612 -0.0513,0.0845 -0.028,0.0233 -0.0513,0.0711 -0.0513,0.106 0,0.0349 -0.0393,0.0892 -0.0875,0.12071 -0.0478,0.0314 -0.11865,0.11865 -0.15695,0.19388 -0.0427,0.0834 -1.2867,1.3739 -3.2009,3.3203 -1.722,1.7507 -3.3975,3.4529 -3.7234,3.7819 l -0.59259,0.59839 0.1043,0.25646 c 0.0578,0.14122 0.15592,0.42571 0.21884,0.63259 0.0626,0.20687 0.14703,0.5683 0.18772,0.80356 0.0404,0.23491 0.0824,0.65036 0.093,0.92324 0.0116,0.2927 0.003,0.64968 -0.0205,0.87194 -0.0222,0.20688 -0.0711,0.53001 -0.10874,0.71808 -0.038,0.18806 -0.12891,0.52282 -0.20243,0.74408 -0.0739,0.22124 -0.21816,0.5707 -0.32074,0.77724 -0.10292,0.20619 -0.25919,0.48658 -0.34707,0.62373 -0.0879,0.13678 -0.27423,0.38982 -0.41374,0.5625 -0.13952,0.17233 -0.38537,0.43836 -0.54643,0.59053 -0.16105,0.1525 -0.4134,0.36895 -0.56078,0.48145 -0.14771,0.11216 -0.40383,0.28655 -0.56967,0.38742 -0.1655,0.10087 -0.39358,0.22978 -0.50642,0.2862 -0.11284,0.0564 -0.35014,0.15968 -0.52693,0.2291 -0.17713,0.0697 -0.46469,0.16481 -0.63911,0.21098 -0.17439,0.0465 -0.4452,0.10839 -0.60147,0.13712 -0.15626,0.0291 -0.5389,0.0612 -0.85042,0.0718 -0.34365,0.0116 -0.69962,0.004 -0.90479,-0.0209 -0.18601,-0.0219 -0.45409,-0.0636 -0.596,-0.093 -0.1419,-0.0291 -0.42742,-0.10669 -0.63431,-0.17268 -0.20687,-0.066 -0.59156,-0.22636 -0.85485,-0.3563 -0.26329,-0.13028 -0.62441,-0.34058 -0.80288,-0.46744 -0.17816,-0.12685 -0.5071,-0.40759 -0.73105,-0.62367 -0.22363,-0.21645 -0.503,-0.51633 -0.62029,-0.66678 -0.11763,-0.15046 -0.30091,-0.40759 -0.40726,-0.57139 -0.10668,-0.16413 -0.28517,-0.48726 -0.39665,-0.71807 -0.11181,-0.23115 -0.26363,-0.60557 -0.33817,-0.83228 -0.0742,-0.22671 -0.16687,-0.57617 -0.20551,-0.77656 -0.0386,-0.20037 -0.0875,-0.54573 -0.10839,-0.76764 -0.0212,-0.22158 -0.0287,-0.57241 -0.0168,-0.77927 0.0116,-0.20687 0.0534,-0.56865 0.092,-0.80356 0.0386,-0.23526 0.13712,-0.63019 0.21849,-0.87773 0.0814,-0.24757 0.23423,-0.61924 0.33989,-0.82545 0.10566,-0.20653 0.27765,-0.50367 0.38263,-0.66026 0.10497,-0.15661 0.31424,-0.4288 0.46538,-0.60456 0.15114,-0.17541 0.40725,-0.43768 0.56899,-0.58232 0.16207,-0.14498 0.38673,-0.33408 0.49957,-0.42059 0.11284,-0.0865 0.34023,-0.24517 0.50573,-0.35288 0.16516,-0.10771 0.45752,-0.26979 0.64969,-0.3604 0.19183,-0.0906 0.50949,-0.22055 0.70577,-0.2886 0.19627,-0.0684 0.54232,-0.16311 0.76936,-0.21063 0.31493,-0.066 0.55942,-0.0913 1.0326,-0.10635 0.40007,-0.0127 0.7396,-0.005 0.95743,0.0219 0.18568,0.0229 0.48179,0.0725 0.65824,0.11011 0.1761,0.0376 0.49171,0.12753 0.70097,0.20003 0.20893,0.0722 0.48727,0.17917 0.61789,0.23799 l 0.23765,0.10702 3.4468,-3.4468 3.4468,-3.4468 v -8.8609 l -0.19662,-0.0616 c -0.10805,-0.0338 -0.40417,-0.13814 -0.65823,-0.23149 -0.25372,-0.0937 -0.64077,-0.25885 -0.85965,-0.36759 l -0.39801,-0.19764 -3.4488,3.4516 c -2.0048,2.0065 -3.5244,3.5008 -3.629,3.5688 -0.0992,0.0643 -0.18842,0.11694 -0.19833,0.11694 -0.01,0 -0.0735,0.0537 -0.14122,0.11968 -0.0725,0.0704 -0.15764,0.11968 -0.20687,0.11968 -0.0458,0 -0.12242,0.0307 -0.17029,0.0684 l -0.0868,0.0684 h -11.059 l -0.0954,0.2479 c -0.0527,0.13643 -0.18636,0.42469 -0.29715,0.64114 -0.11113,0.21611 -0.30535,0.5389 -0.43152,0.71703 -0.12652,0.17815 -0.39905,0.49923 -0.60592,0.71364 -0.20687,0.21441 -0.52624,0.503 -0.70952,0.64114 -0.18329,0.13815 -0.47565,0.33477 -0.64969,0.43735 -0.17404,0.10223 -0.44726,0.2438 -0.60694,0.3139 -0.16003,0.0704 -0.44418,0.17952 -0.63192,0.24278 -0.18772,0.0633 -0.51872,0.1525 -0.73517,0.19798 -0.21678,0.0455 -0.59395,0.10121 -0.83843,0.12344 -0.25338,0.0229 -0.60626,0.0308 -0.82065,0.0184 -0.20688,-0.0123 -0.53582,-0.0458 -0.73105,-0.0749 -0.19525,-0.0287 -0.54095,-0.106 -0.76869,-0.17132 -0.22739,-0.0657 -0.5601,-0.18157 -0.73929,-0.25748 -0.17918,-0.0763 -0.48692,-0.23013 -0.68456,-0.34194 -0.1973,-0.11181 -0.49684,-0.30603 -0.66506,-0.43187 -0.16858,-0.12549 -0.45923,-0.37511 -0.64594,-0.55428 -0.1867,-0.17918 -0.42777,-0.43358 -0.53513,-0.56523 -0.10771,-0.13165 -0.27321,-0.35493 -0.36827,-0.49581 -0.0947,-0.14122 -0.24072,-0.38092 -0.32416,-0.53275 -0.0834,-0.15181 -0.21645,-0.42674 -0.2951,-0.6107 -0.079,-0.18396 -0.18909,-0.49718 -0.24517,-0.69587 -0.0557,-0.19867 -0.1248,-0.48624 -0.15352,-0.63911 -0.0284,-0.15284 -0.0657,-0.47358 -0.0828,-0.71229 -0.0185,-0.26192 -0.0181,-0.61173 0.001,-0.88289 0.0174,-0.24688 0.0636,-0.60456 0.10223,-0.79501 0.0383,-0.19012 0.10224,-0.45376 0.14123,-0.5854 0.0393,-0.13165 0.1166,-0.35494 0.17165,-0.49582 0.0554,-0.14122 0.17815,-0.41033 0.27287,-0.59839 0.0947,-0.18807 0.26329,-0.47872 0.3751,-0.64594 0.11148,-0.16721 0.29339,-0.41477 0.40418,-0.55052 0.11078,-0.13576 0.36964,-0.40657 0.57548,-0.60216 0.20551,-0.19559 0.49684,-0.44418 0.64766,-0.55292 0.15045,-0.10839 0.40998,-0.27526 0.57651,-0.371 0.16619,-0.0957 0.45273,-0.24175 0.63634,-0.32416 0.18362,-0.0827 0.51462,-0.20482 0.73585,-0.27184 0.2209,-0.067 0.57104,-0.1508 0.77792,-0.18602 0.20687,-0.0349 0.55325,-0.0742 0.76936,-0.0872 0.23286,-0.014 0.57378,-0.007 0.83603,0.0167 0.24346,0.0222 0.58198,0.0694 0.75227,0.10532 0.17029,0.0355 0.41614,0.0957 0.54642,0.13369 0.12994,0.038 0.34536,0.11011 0.47872,0.16037 0.13301,0.0503 0.40349,0.172 0.60078,0.27082 0.19765,0.0985 0.49753,0.27013 0.66679,0.38161 0.16926,0.11147 0.44999,0.32176 0.62367,0.46777 0.1737,0.14567 0.43016,0.39084 0.57036,0.54471 0.13985,0.15387 0.33304,0.38365 0.42913,0.51086 0.0961,0.1272 0.26158,0.3734 0.36759,0.5471 0.106,0.1737 0.24927,0.43905 0.31868,0.58951 0.0694,0.15045 0.16106,0.36964 0.2038,0.48726 l 0.0776,0.21371 h 9.7268 l 3.1421,-3.1421 3.1417,-3.1421 -0.10498,-0.18328 c -0.0575,-0.10087 -0.16174,-0.31424 -0.23149,-0.47393 -0.0694,-0.16003 -0.21508,-0.54471 -0.32314,-0.85485 l -0.19695,-0.5642 -5.1804,-0.0171 -5.1808,-0.0171 -0.066,-0.0598 c -0.0366,-0.0328 -0.0824,-0.0598 -0.10223,-0.0598 -0.0195,0 -0.055,-0.0233 -0.0783,-0.0513 -0.0233,-0.0284 -0.0704,-0.0513 -0.1043,-0.0513 -0.0342,0 -0.0951,-0.0465 -0.13541,-0.10327 -0.0403,-0.0564 -0.12207,-0.1272 -0.18191,-0.15695 -0.0595,-0.0298 -1.7856,-1.7299 -3.8356,-3.7778 l -3.7271,-3.7237 -0.25646,0.10463 c -0.14088,0.0575 -0.42571,0.15593 -0.63259,0.21884 -0.20687,0.0626 -0.5683,0.14704 -0.80356,0.18773 -0.23491,0.0404 -0.65036,0.0824 -0.92323,0.093 -0.29271,0.0116 -0.64969,0.003 -0.87195,-0.0205 -0.20726,-0.0295 -0.53013,-0.0787 -0.71832,-0.11624 -0.18819,-0.0381 -0.52152,-0.12853 -0.74108,-0.20172 -0.21955,-0.0732 -0.54673,-0.20479 -0.72693,-0.29274 -0.18081,-0.0873 -0.46309,-0.24415 -0.62668,-0.34686 -0.16421,-0.1027 -0.43973,-0.30135 -0.61254,-0.44157 -0.1722,-0.14022 -0.4385,-0.38683 -0.5904,-0.54735 -0.15252,-0.16113 -0.369,-0.41389 -0.48155,-0.56088 -0.11254,-0.1476 -0.28659,-0.40405 -0.38745,-0.5701 -0.10086,-0.16544 -0.23001,-0.3936 -0.28659,-0.50615 -0.056,-0.11254 -0.15928,-0.34993 -0.22878,-0.52705 -0.0701,-0.17712 -0.16482,-0.46433 -0.21094,-0.63899 -0.0465,-0.17439 -0.1084,-0.4452 -0.13712,-0.60147 -0.0291,-0.15626 -0.0612,-0.5389 -0.0718,-0.85042 -0.0116,-0.34365 -0.003,-0.69963 0.0209,-0.90479 0.0219,-0.18601 0.0636,-0.4541 0.093,-0.596 0.0291,-0.14191 0.10736,-0.42743 0.1737,-0.63431 0.0667,-0.20688 0.18602,-0.51531 0.26535,-0.68524 0.079,-0.17028 0.20927,-0.42126 0.28929,-0.55804 0.08,-0.13712 0.25782,-0.39802 0.39562,-0.57993 0.13746,-0.18191 0.38194,-0.46368 0.54266,-0.62607 0.16071,-0.16242 0.41238,-0.39187 0.55872,-0.51018 0.14669,-0.11831 0.41512,-0.31253 0.59669,-0.43187 0.18123,-0.11899 0.51975,-0.30843 0.75227,-0.42058 0.23217,-0.11216 0.60762,-0.26466 0.83431,-0.33921 0.2267,-0.0742 0.57993,-0.16755 0.78511,-0.20722 0.20482,-0.0393 0.57104,-0.0889 0.81383,-0.1101 0.32962,-0.0284 0.55941,-0.028 0.90786,0.001 0.25645,0.0219 0.62029,0.0711 0.80835,0.10977 0.18807,0.0383 0.52044,0.12925 0.73862,0.20174 0.21816,0.0725 0.55258,0.2103 0.74304,0.3057 0.19046,0.0957 0.43495,0.23046 0.54369,0.29954 0.10839,0.0691 0.32039,0.21849 0.47085,0.33236 0.15045,0.11387 0.4281,0.36143 0.61721,0.54984 0.18875,0.18875 0.43666,0.4582 0.55052,0.59942 0.11421,0.14088 0.30365,0.40247 0.42093,0.5813 0.11763,0.17849 0.29544,0.49411 0.39563,0.70098 0.0999,0.20687 0.2373,0.53685 0.30501,0.73314 0.068,0.19627 0.16481,0.55018 0.21474,0.78646 l 0.0913,0.42948 0.002,0.78646 c 0.001,0.62472 -0.0116,0.85688 -0.0619,1.1284 -0.0349,0.18806 -0.11661,0.51906 -0.18158,0.73517 -0.065,0.2161 -0.1867,0.55462 -0.27013,0.75227 l -0.15148,0.35903 3.445,3.445 3.445,3.445 h 8.8572 l 0.14909,-0.41887 c 0.0821,-0.23047 0.21508,-0.56523 0.29578,-0.74372 0.0807,-0.17884 0.20755,-0.43461 0.28175,-0.56899 l 0.13541,-0.24414 -3.5196,-3.5172 c -2.888,-2.8856 -3.543,-3.5559 -3.6531,-3.7435 -0.0738,-0.12546 -0.14637,-0.23309 -0.16174,-0.23924 -0.0148,-0.006 -0.0609,-0.0603 -0.10271,-0.11931 -0.0412,-0.059 -0.0756,-0.14575 -0.0756,-0.19249 0,-0.0465 -0.0229,-0.10395 -0.0513,-0.1272 -0.0451,-0.0376 -0.0513,-0.7003 -0.0513,-5.5873 v -5.5449 l -0.36709,-0.14456 c -0.20172,-0.0799 -0.53136,-0.23924 -0.73185,-0.35363 -0.20049,-0.11439 -0.49999,-0.30934 -0.66666,-0.43296 -0.16605,-0.12423 -0.46494,-0.38745 -0.66297,-0.58609 -0.19864,-0.19803 -0.46187,-0.49692 -0.5861,-0.66297 -0.12378,-0.16653 -0.32005,-0.46846 -0.43597,-0.67091 -0.11626,-0.20277 -0.27868,-0.53581 -0.36143,-0.74064 -0.0827,-0.20448 -0.18875,-0.50504 -0.23559,-0.66783 -0.0469,-0.16276 -0.1084,-0.40896 -0.13678,-0.5471 -0.0284,-0.13814 -0.0677,-0.38161 -0.0875,-0.54095 -0.0198,-0.15935 -0.0359,-0.52693 -0.0359,-0.81654 0,-0.29612 0.0233,-0.68523 0.053,-0.88972 0.0291,-0.20003 0.0988,-0.54026 0.15456,-0.75602 0.0561,-0.2161 0.16926,-0.55941 0.25201,-0.76284 0.0828,-0.20346 0.24004,-0.53172 0.3498,-0.72933 0.10977,-0.1973 0.32108,-0.52351 0.46983,-0.72459 0.14874,-0.20107 0.43323,-0.5283 0.63258,-0.72767 0.19901,-0.19901 0.52078,-0.47974 0.71463,-0.62367 0.19354,-0.14362 0.46231,-0.32587 0.59669,-0.40418 0.13472,-0.0786 0.39152,-0.21165 0.57104,-0.29543 0.17952,-0.0841 0.50504,-0.21166 0.72355,-0.28346 0.21849,-0.0718 0.55599,-0.16243 0.74987,-0.20107 0.19422,-0.039 0.54881,-0.0848 0.78818,-0.10155 0.25167,-0.0181 0.6206,-0.0185 0.87435,-0.001 0.24141,0.0161 0.60659,0.0622 0.81143,0.10189 0.20516,0.04 0.56214,0.13439 0.79328,0.20995 0.2315,0.0756 0.61002,0.23252 0.8412,0.34913 0.23149,0.11626 0.5536,0.30056 0.71635,0.4093 0.16311,0.10874 0.44487,0.32177 0.62644,0.47358 0.18158,0.15149 0.45615,0.41717 0.61002,0.59053 0.15422,0.17303 0.38366,0.45957 0.51052,0.63702 0.12686,0.17713 0.34433,0.54574 0.48316,0.81893 0.13883,0.27287 0.30946,0.67263 0.37921,0.888 0.0694,0.21543 0.15558,0.53035 0.19149,0.7003 0.0359,0.16961 0.0827,0.47633 0.10463,0.68185 0.0229,0.21748 0.0315,0.58882 0.0202,0.88905 -0.0106,0.28346 -0.0451,0.66168 -0.0766,0.84046 -0.0318,0.17849 -0.10839,0.5023 -0.17062,0.71942 -0.0622,0.21679 -0.18465,0.55771 -0.27219,0.75775 -0.0875,0.19969 -0.23115,0.4876 -0.31937,0.64009 -0.0879,0.15284 -0.25987,0.41819 -0.38195,0.59019 -0.12173,0.172 -0.3751,0.47324 -0.56249,0.66949 -0.18738,0.19627 -0.44896,0.44555 -0.58164,0.55394 -0.13267,0.10806 -0.38707,0.29304 -0.56591,0.41033 -0.17849,0.11762 -0.45546,0.27902 -0.61549,0.35904 -0.15969,0.08 -0.41751,0.19593 -0.57275,0.25748 l -0.28229,0.11008 v 9.7373 l 3.1811,3.1797 c 1.7497,1.7487 3.1958,3.1797 3.2139,3.1797 0.0181,0 0.19832,-0.0827 0.40075,-0.18396 0.20243,-0.10122 0.63327,-0.28826 0.9578,-0.41614 l 0.58985,-0.23218 0.001,-5.1489 10e-4,-5.1489 0.13575,-0.20448 c 0.0738,-0.11255 0.1353,-0.22202 0.1353,-0.24354 0,-0.0219 0.0383,-0.0646 0.0848,-0.0951 0.0465,-0.0308 0.10976,-0.10566 0.13985,-0.16653 0.0304,-0.0609 1.7627,-1.8195 3.8488,-3.9077 l 3.7938,-3.7969 -0.0838,-0.1891 c -0.0458,-0.10395 -0.13746,-0.35972 -0.2038,-0.5683 -0.066,-0.20859 -0.15148,-0.53821 -0.18978,-0.73277 -0.0386,-0.19457 -0.0858,-0.503 -0.10532,-0.68561 -0.0195,-0.18259 -0.0356,-0.4982 -0.0352,-0.70097 0,-0.20277 0.0161,-0.50744 0.0352,-0.67669 0.0195,-0.16926 0.0663,-0.46162 0.10429,-0.64968 0.038,-0.18807 0.12892,-0.52146 0.20175,-0.74102 0.0732,-0.21952 0.20482,-0.54676 0.2927,-0.7273 0.0879,-0.18088 0.24414,-0.46264 0.34707,-0.62674 0.10293,-0.16413 0.30159,-0.43974 0.44178,-0.61242 0.1402,-0.17233 0.38879,-0.44076 0.55292,-0.596 0.16379,-0.15524 0.43632,-0.38468 0.60558,-0.50949 0.16926,-0.12516 0.43084,-0.30194 0.5813,-0.39289 0.15045,-0.0913 0.40417,-0.22636 0.5642,-0.30022 0.16003,-0.0742 0.41101,-0.17918 0.55804,-0.23355 0.14704,-0.0544 0.41614,-0.13609 0.5984,-0.18157 0.18191,-0.0455 0.44657,-0.0992 0.58745,-0.11968 0.14122,-0.0202 0.2951,-0.0424 0.34194,-0.0492 0.0472,-0.007 0.30911,-0.0147 0.58233,-0.0171 z m -0.0332,4.1487 c -0.16105,-0.007 -0.36553,6.8e-4 -0.45478,0.0171 -0.0889,0.0161 -0.24277,0.0557 -0.34194,0.0879 -0.0988,0.0321 -0.28757,0.11387 -0.41922,0.18157 -0.1631,0.0838 -0.32655,0.21064 -0.51359,0.39768 -0.18533,0.18499 -0.31493,0.3522 -0.3987,0.51359 -0.0684,0.13165 -0.16003,0.35459 -0.20346,0.49581 -0.0629,0.20414 -0.079,0.3334 -0.078,0.63259 0.001,0.24962 0.0219,0.45102 0.0619,0.5984 0.0335,0.12207 0.12447,0.34536 0.20243,0.49581 0.0992,0.19149 0.21884,0.35152 0.3987,0.53308 0.14156,0.14293 0.35562,0.31698 0.47598,0.38674 0.12071,0.0697 0.33613,0.16789 0.47872,0.21781 0.22978,0.08 0.31151,0.0906 0.70442,0.0906 0.39802,0 0.47324,-0.01 0.71807,-0.0951 0.15046,-0.0523 0.35836,-0.14293 0.46162,-0.2014 0.10361,-0.0585 0.31219,-0.23047 0.46401,-0.38229 0.15183,-0.15182 0.32382,-0.36075 0.38229,-0.46401 0.0585,-0.10361 0.14909,-0.31117 0.2014,-0.46162 0.0848,-0.24449 0.0951,-0.32074 0.0954,-0.71808 l 3.4e-4,-0.44452 -0.10429,-0.29475 c -0.0574,-0.16208 -0.17712,-0.40349 -0.26569,-0.53685 -0.0885,-0.13335 -0.26124,-0.33407 -0.38365,-0.44623 -0.12242,-0.11216 -0.34091,-0.26535 -0.48556,-0.34057 -0.14498,-0.0752 -0.36245,-0.16242 -0.4835,-0.19354 -0.12139,-0.0315 -0.35219,-0.0626 -0.51291,-0.0698 z m -24.465,0.12276 c -0.18977,0.001 -0.40759,0.027 -0.55907,0.0667 -0.13643,0.0359 -0.31595,0.0951 -0.39904,0.13199 -0.0828,0.0366 -0.2421,0.12857 -0.35391,0.20448 -0.11147,0.0756 -0.29817,0.24175 -0.41477,0.36895 -0.13062,0.14259 -0.2633,0.33681 -0.34673,0.50641 -0.0739,0.15149 -0.16037,0.37511 -0.19148,0.49753 -0.0342,0.13233 -0.0568,0.35356 -0.0564,0.5471 3.4e-4,0.18157 0.0256,0.42811 0.0571,0.55942 0.0311,0.12891 0.10805,0.33886 0.17097,0.46675 0.0629,0.12788 0.18738,0.32518 0.27594,0.43802 0.0889,0.11319 0.25064,0.27561 0.35938,0.36109 0.10874,0.0851 0.30569,0.20962 0.43837,0.27595 0.13233,0.0663 0.34604,0.14635 0.47461,0.17713 0.13301,0.0321 0.37477,0.0564 0.55907,0.0564 0.18807,0 0.41854,-0.0239 0.54711,-0.0564 0.12241,-0.0308 0.34604,-0.11695 0.49752,-0.19081 0.17097,-0.0841 0.36417,-0.21645 0.51052,-0.35049 0.12925,-0.11831 0.30945,-0.32894 0.39972,-0.46743 0.0923,-0.14122 0.20414,-0.37442 0.25475,-0.53 0.0629,-0.19526 0.0944,-0.37956 0.10566,-0.61992 0.0113,-0.23731 -3.5e-4,-0.42025 -0.038,-0.59703 -0.0297,-0.14054 -0.10772,-0.36793 -0.17303,-0.50573 -0.0653,-0.13746 -0.18909,-0.3416 -0.27526,-0.45342 -0.0862,-0.11181 -0.24346,-0.27423 -0.34981,-0.36109 -0.10634,-0.0865 -0.29988,-0.21097 -0.42981,-0.27662 -0.13029,-0.0653 -0.35255,-0.14875 -0.49445,-0.185 -0.16687,-0.0427 -0.36827,-0.0653 -0.56899,-0.0639 z m 42.002,16.743 c -0.13952,-0.009 -0.30775,-0.01 -0.37375,-0.002 -0.0656,0.009 -0.21747,0.0376 -0.33715,0.065 -0.11934,0.0274 -0.32176,0.10122 -0.44965,0.16413 -0.12788,0.0629 -0.32518,0.18738 -0.43802,0.27594 -0.11319,0.0889 -0.27835,0.25407 -0.36725,0.36725 -0.0886,0.11284 -0.21302,0.31013 -0.27594,0.43802 -0.0629,0.12789 -0.13986,0.33784 -0.17097,0.46675 -0.0322,0.13336 -0.0564,0.37477 -0.0564,0.55942 0,0.18806 0.0239,0.41853 0.0564,0.5471 0.0307,0.12207 0.11694,0.34604 0.1908,0.49752 0.0841,0.17097 0.21645,0.36417 0.35049,0.51052 0.11831,0.12926 0.32894,0.30946 0.46743,0.39973 0.14122,0.0923 0.37442,0.20413 0.53001,0.25474 0.19525,0.0629 0.37955,0.0944 0.61992,0.10566 0.23764,0.0113 0.42024,-3.4e-4 0.59839,-0.038 0.14122,-0.0301 0.37955,-0.11352 0.53001,-0.18567 0.15045,-0.0722 0.36895,-0.21064 0.48521,-0.3074 0.11626,-0.0968 0.28142,-0.27424 0.36725,-0.39392 0.0855,-0.12002 0.20208,-0.31766 0.25919,-0.43974 0.0571,-0.12207 0.12788,-0.33578 0.15729,-0.47495 0.0373,-0.17507 0.0489,-0.35903 0.0376,-0.59532 -0.0113,-0.24038 -0.0427,-0.42469 -0.10567,-0.61992 -0.0506,-0.15558 -0.16242,-0.38878 -0.25474,-0.53 -0.0903,-0.13849 -0.27047,-0.34913 -0.39973,-0.46744 -0.14635,-0.13403 -0.3392,-0.26636 -0.51051,-0.35014 -0.15148,-0.0742 -0.36075,-0.15626 -0.46573,-0.18294 -0.10463,-0.0263 -0.30467,-0.0554 -0.44452,-0.0646 z m -58.727,0.61377 c -0.13165,-0.009 -0.33203,-0.004 -0.44555,0.0116 -0.11352,0.0157 -0.30569,0.0616 -0.42743,0.1019 -0.12173,0.0407 -0.32826,0.13677 -0.45854,0.21371 -0.13062,0.0769 -0.33852,0.24175 -0.46162,0.36587 -0.12344,0.12447 -0.28244,0.32587 -0.35356,0.4476 -0.0708,0.12207 -0.16926,0.34468 -0.21884,0.49513 -0.0752,0.22945 -0.0899,0.33716 -0.091,0.66678 -10e-4,0.27492 0.0168,0.45991 0.0595,0.61481 0.0332,0.12207 0.10463,0.31014 0.15832,0.41854 0.0537,0.10805 0.14396,0.26397 0.20071,0.34638 0.0564,0.0824 0.2103,0.24927 0.3416,0.37066 0.13096,0.12139 0.32792,0.26843 0.43734,0.32621 0.10942,0.0581 0.2992,0.13917 0.42127,0.17986 0.14669,0.0489 0.34467,0.0804 0.58129,0.092 0.25543,0.0127 0.4329,0.002 0.6155,-0.0362 0.14122,-0.0297 0.37955,-0.11523 0.53,-0.18977 0.15046,-0.0745 0.36041,-0.20961 0.46675,-0.29988 0.10635,-0.0903 0.24107,-0.22021 0.29954,-0.2886 0.0585,-0.0684 0.16037,-0.21474 0.22671,-0.32484 0.0663,-0.1101 0.15969,-0.32348 0.20756,-0.47393 0.0496,-0.15593 0.0951,-0.39904 0.106,-0.56557 0.0133,-0.20277 0.002,-0.3799 -0.0376,-0.5813 -0.0356,-0.18259 -0.11216,-0.4028 -0.20722,-0.59703 -0.0927,-0.18977 -0.225,-0.39049 -0.34536,-0.52316 -0.10737,-0.11866 -0.28176,-0.27424 -0.38742,-0.34571 -0.10566,-0.0715 -0.25645,-0.16276 -0.3351,-0.20277 -0.0783,-0.04 -0.25543,-0.10258 -0.39323,-0.13917 -0.13746,-0.0369 -0.35801,-0.0742 -0.48966,-0.0831 z m 58.817,23.761 c -0.17131,-0.007 -0.35733,-0.006 -0.41375,0.004 -0.0564,0.009 -0.1949,0.0397 -0.30774,0.0684 -0.11284,0.0287 -0.3245,0.11387 -0.47017,0.18978 -0.15045,0.078 -0.36758,0.23286 -0.50333,0.35835 -0.13097,0.12139 -0.30707,0.331 -0.39084,0.46641 -0.0841,0.13506 -0.19559,0.36861 -0.24756,0.51906 -0.0848,0.24449 -0.0951,0.32074 -0.0951,0.71808 0,0.39801 0.01,0.47324 0.0951,0.71807 0.0523,0.15045 0.14292,0.35801 0.2014,0.46162 0.0585,0.10326 0.23046,0.31219 0.38229,0.46401 0.15181,0.15182 0.36074,0.32382 0.46401,0.38229 0.10361,0.0585 0.30945,0.14669 0.4582,0.19662 0.16755,0.0564 0.38229,0.0978 0.56625,0.10976 0.17131,0.0109 0.39631,0.002 0.53343,-0.0219 0.13062,-0.0229 0.33749,-0.0814 0.45956,-0.12994 0.12242,-0.0486 0.31801,-0.14874 0.43495,-0.22226 0.11729,-0.0735 0.31458,-0.24381 0.43871,-0.37785 0.15968,-0.17233 0.26911,-0.33441 0.37374,-0.55326 0.0814,-0.16994 0.16858,-0.39391 0.19388,-0.49717 0.0256,-0.10566 0.0445,-0.35288 0.0424,-0.5642 -0.002,-0.30262 -0.0205,-0.42743 -0.0892,-0.63837 -0.0475,-0.14396 -0.14464,-0.36725 -0.2161,-0.49582 -0.0732,-0.13164 -0.2356,-0.3392 -0.37204,-0.47564 -0.13643,-0.13643 -0.34399,-0.29885 -0.47564,-0.37203 -0.12856,-0.0715 -0.35014,-0.16721 -0.49273,-0.21234 -0.16824,-0.0533 -0.36758,-0.0869 -0.56967,-0.0951 z m -58.846,0.60079 c -0.0971,0.002 -0.20722,0.01 -0.24483,0.0175 -0.0376,0.007 -0.15285,0.0301 -0.25646,0.0506 -0.10326,0.0208 -0.265,0.0697 -0.35903,0.10908 -0.094,0.039 -0.26672,0.13062 -0.38332,0.2038 -0.11694,0.0728 -0.31766,0.24517 -0.44623,0.38262 -0.12891,0.13781 -0.28176,0.34058 -0.34023,0.45102 -0.0585,0.11011 -0.13985,0.30022 -0.18055,0.42264 -0.0489,0.14669 -0.0804,0.34468 -0.092,0.5813 -0.0127,0.2568 -0.002,0.43187 0.0366,0.61413 0.0301,0.14053 0.10635,0.36382 0.16961,0.49581 0.0633,0.13233 0.18533,0.33305 0.27116,0.44589 0.0858,0.11284 0.22773,0.265 0.31595,0.33783 0.0879,0.0732 0.24687,0.18533 0.35322,0.24928 0.10635,0.0639 0.31629,0.15524 0.46675,0.20311 0.15593,0.0496 0.39904,0.0951 0.56556,0.106 0.20278,0.0134 0.3799,0.002 0.5813,-0.0376 0.1867,-0.0366 0.40384,-0.1125 0.61276,-0.21473 0.26124,-0.12755 0.37271,-0.20791 0.5813,-0.4182 0.1419,-0.14327 0.31595,-0.3604 0.38707,-0.48248 0.0708,-0.12207 0.16003,-0.3221 0.19833,-0.44418 0.038,-0.12241 0.0838,-0.33817 0.1019,-0.47974 0.0205,-0.16447 0.0205,-0.35185 -6.8e-4,-0.51907 -0.0185,-0.14395 -0.0656,-0.35903 -0.10498,-0.47768 -0.0397,-0.119 -0.13164,-0.3163 -0.20413,-0.43837 -0.0728,-0.12242 -0.20311,-0.30227 -0.28962,-0.40007 -0.0865,-0.0978 -0.27116,-0.25406 -0.41068,-0.34741 -0.14145,-0.0923 -0.34501,-0.20295 -0.45448,-0.246 -0.10908,-0.041 -0.31117,-0.0961 -0.44931,-0.12276 -0.1378,-0.0263 -0.33031,-0.0465 -0.42742,-0.0441 z m 41.728,16.756 c -0.16003,0.002 -0.32894,0.0106 -0.37613,0.0185 -0.0469,0.007 -0.18567,0.0454 -0.30775,0.0838 -0.12207,0.0379 -0.31184,0.11694 -0.42126,0.17507 -0.10943,0.0581 -0.30639,0.20517 -0.43735,0.32656 -0.1313,0.12138 -0.28518,0.28825 -0.3416,0.37066 -0.0568,0.0824 -0.14703,0.23833 -0.20071,0.34638 -0.0537,0.1084 -0.12516,0.29646 -0.15832,0.41854 -0.0427,0.1549 -0.0605,0.33989 -0.0595,0.6148 10e-4,0.32963 0.0157,0.43734 0.091,0.66679 0.0496,0.15045 0.14806,0.37306 0.21884,0.49513 0.0711,0.12172 0.23013,0.32313 0.35357,0.44759 0.1231,0.12413 0.33099,0.28894 0.46162,0.36588 0.13027,0.0769 0.33475,0.17234 0.45375,0.212 0.11934,0.0397 0.3351,0.0869 0.47974,0.10498 0.16789,0.0212 0.35596,0.0212 0.51873,3.4e-4 0.14053,-0.0178 0.35561,-0.0636 0.47768,-0.10155 0.12208,-0.0383 0.32211,-0.12755 0.44418,-0.19833 0.12208,-0.0711 0.33921,-0.24517 0.48248,-0.38707 0.2103,-0.20859 0.29065,-0.32006 0.4182,-0.5813 0.10223,-0.20893 0.17814,-0.42606 0.21474,-0.61276 0.0393,-0.2014 0.0509,-0.37853 0.0376,-0.5813 -0.0109,-0.16652 -0.0564,-0.40964 -0.10601,-0.56557 -0.0478,-0.15045 -0.13917,-0.3604 -0.20311,-0.46674 -0.0639,-0.10635 -0.1761,-0.26535 -0.24927,-0.35323 -0.0728,-0.0882 -0.225,-0.23013 -0.33784,-0.31595 -0.11284,-0.0858 -0.31322,-0.2079 -0.44555,-0.27116 -0.13199,-0.0633 -0.34741,-0.1378 -0.47872,-0.1655 -0.13096,-0.0277 -0.36895,-0.0486 -0.52898,-0.0465 z m -24.261,0.24893 c -0.21474,-0.008 -0.43118,0.006 -0.58129,0.0366 -0.13165,0.027 -0.38503,0.12104 -0.56284,0.20892 -0.25885,0.12823 -0.37442,0.21201 -0.5813,0.42025 -0.1419,0.14327 -0.31595,0.3604 -0.38707,0.48248 -0.0708,0.12207 -0.16003,0.32176 -0.19833,0.44417 -0.038,0.12207 -0.0838,0.33818 -0.1019,0.47975 -0.0205,0.16447 -0.0205,0.35185 6.8e-4,0.51906 0.0185,0.14396 0.0657,0.35904 0.10497,0.47769 0.0397,0.119 0.1337,0.32074 0.20893,0.44863 0.0756,0.12788 0.225,0.3221 0.33203,0.43187 0.10703,0.10942 0.29236,0.26192 0.41135,0.33886 0.119,0.0769 0.3033,0.17302 0.4093,0.21303 0.10635,0.0403 0.3163,0.0957 0.46675,0.12344 0.17165,0.0315 0.3669,0.0431 0.5242,0.0308 0.13814,-0.0106 0.34536,-0.0441 0.46127,-0.0739 0.11558,-0.0301 0.29852,-0.0985 0.40691,-0.15217 0.10806,-0.0537 0.26398,-0.14395 0.34639,-0.20071 0.0824,-0.0564 0.2503,-0.21166 0.37339,-0.34434 0.14669,-0.15866 0.27048,-0.33818 0.36075,-0.52316 0.0756,-0.1549 0.16174,-0.39221 0.19149,-0.52762 0.0298,-0.13541 0.0537,-0.36622 0.0533,-0.51291 -3.4e-4,-0.14669 -0.0222,-0.36929 -0.0489,-0.49445 -0.0263,-0.12549 -0.10087,-0.34091 -0.16516,-0.47871 -0.0643,-0.13814 -0.18704,-0.34331 -0.27321,-0.45615 -0.0858,-0.11284 -0.22807,-0.265 -0.31629,-0.33784 -0.0879,-0.0732 -0.24688,-0.18533 -0.35323,-0.24927 -0.10634,-0.0639 -0.31629,-0.15558 -0.46675,-0.2038 -0.19525,-0.0622 -0.37135,-0.091 -0.61549,-0.10053 z"
           stroke="null" />
      </g>
    </g>
  </g>
</svg>
